<svg xmlns="http://www.w3.org/2000/svg" xmlns:xlink="http://www.w3.org/1999/xlink" viewBox="0 0 844 844" height="844" width="844" style="background: rgba(197,184,223,0.00);"><defs><linearGradient id="Gradient-0" x1="0" y1="0" x2="1" y2="0" gradientUnits="userSpaceOnUse" gradientTransform="matrix(0 130.8 -84.5 0 110.6 201.6)"><stop offset="0" stop-color="#381e4f" stop-opacity=".54"/><stop offset=".4" stop-color="#1f112b" stop-opacity=".29"/><stop offset=".6" stop-color="#120a19" stop-opacity=".17"/><stop offset="1" stop-color="#000" stop-opacity="0"/></linearGradient><linearGradient id="Gradient-1" x1="0" y1="0" x2="1" y2="-1.6" gradientUnits="userSpaceOnUse" gradientTransform="matrix(22.5 192.5 -47.8 90.7 10.2 25.9)"><stop offset="0" stop-color="#403748"/><stop offset="1" stop-color="#1f1429"/></linearGradient><linearGradient id="Gradient-2" x1="0" y1="0" x2="1" y2="0" gradientUnits="userSpaceOnUse" gradientTransform="matrix(74.7 158.4 -158.4 74.7 34.2 44)"><stop offset="0" stop-color="#13091b"/><stop offset="1" stop-color="#34283e"/></linearGradient><linearGradient id="Gradient-3" x1="0" y1="0" x2="1" y2="0" gradientUnits="userSpaceOnUse" gradientTransform="matrix(1.4 36.8 -36.8 1.4 106.1 -4.5)"><stop offset="0" stop-color="#41324e"/><stop offset="1" stop-color="#8b72a2"/></linearGradient><radialGradient id="Gradient-4" cx="0" cy="0" r="1" fx="0" fy="0" gradientUnits="userSpaceOnUse" gradientTransform="matrix(-285.3 0 0 -43.5 106.2 -11.3)"><stop offset="0" stop-color="#8b72a2"/><stop offset="1" stop-color="#41324e"/></radialGradient><linearGradient id="Gradient-5" x1="0" y1="0" x2="1" y2=".4" gradientUnits="userSpaceOnUse" gradientTransform="matrix(74.7 -66.3 -158.4 -31.3 34.4 158.2)"><stop offset="0" stop-color="#13091b"/><stop offset="1" stop-color="#34283e"/></linearGradient><radialGradient id="Gradient-6" cx="0" cy="0" r="1" fx="0" fy="0" gradientUnits="userSpaceOnUse" gradientTransform="matrix(-214.3 0 0 150.5 106.5 166.3)"><stop offset="0" stop-color="#41324e"/><stop offset="1" stop-color="#8b72a2"/></radialGradient></defs><g clip-rule="evenodd" fill-rule="evenodd" stroke-linejoin="round" stroke-miterlimit="2" transform="translate(422,310) translate(-106.2,-99.4)"><image id="_a0" xlink:href="./Shadow.png" width="200" height="92" preserveAspectRatio="none" transform="translate(106.1,174.1) translate(0,0) translate(-100,-46)"/><path id="Reflection-2" d="M35.7 201.7h142.6l20.1 23.8l-6.8 106.9h-171.3l-6.7-106.9Z" fill="url(#Gradient-0)" transform="translate(106,254) translate(-106,-267)"/><g transform="translate(106.2,28.8) translate(-105.4,-41.8)"><path id="Solid" d="M2.3 32.2l24.7-31.4h158l26.3 31.6l-12 184.4h-187.3Z" fill="#34283e" visibility="visible" transform="translate(117.6,118.6) translate(-118.1,-118.7)"/><path id="Left-2" d="M33.4 145.8l-6.9-145.7l-25.9 32.2l11.3 185Z" fill="url(#Gradient-1)" fill-rule="nonzero" visibility="visible" transform="translate(31.3,124) translate(-31.9,-124.2)"/><path id="Front-2" d="M.6 32.3h210.7l-11.7 185h-187.7Z" fill="url(#Gradient-2)" transform="translate(105.4,124.7) translate(-106.2,-124.8)"/><path d="M.9 32.3l25.9-32.2h158.3l26.5 32.2h-210.7Z" fill="url(#Gradient-3)" fill-rule="nonzero" opacity="0" transform="translate(105.4,16.1) translate(-106.2,-16.2)"/><path d="M9.5 29.3l20.1-25.7h153l20.7 25.7h-193.8Z" fill="#1b1023" fill-rule="nonzero" opacity="0" transform="translate(105.6,16.3) translate(-106.4,-16.4)"/><path id="Lid-2" d="M.6 32.3l25.9-32.2h158.3l26.5 32.2Z" fill="url(#Gradient-4)" transform="translate(105.4,16.1) translate(-106.2,-16.2)"/><path d="M.9 .3l25.9-0.2h158.3l26.5 .2Z" fill="url(#Gradient-5)" opacity="0" fill-rule="nonzero" transform="translate(105.4,16.1) translate(-106.2,-16.2)"/><path d="M.9 .3l25.9-0.2h158.3l26.5 .2Z" fill="url(#Gradient-6)" opacity="0" fill-rule="nonzero" transform="translate(105.4,16.1) translate(-106.2,-16.2)"/></g></g><script xlink:href="keyshapejs-1.2.0.min.js"/><script><![CDATA[if(KeyshapeJS.version.indexOf('1.')!=0)throw Error('Expected KeyshapeJS v1.*.*');window.ks=document.ks=KeyshapeJS;(function(ks){
var tl=ks.animate("#_a0",[{p:'mpath',t:[0,3000],v:['0%','100%'],e:[[0],[0]],mp:"M106.1,174.1L108.9,174.6"},{p:'rotate',t:[0,3000],v:[0,-13],e:[[1,0,0,.6,1],[0]]},{p:'skewX',t:[0,3000],v:[0,32],e:[[1,0,0,.6,1],[0]]},{p:'skewY',t:[0,3000],v:[0,0],e:[[1,0,0,.6,1],[0]]},{p:'scaleX',t:[0,3000],v:[1,.9],e:[[1,0,0,.6,1],[0]]},{p:'scaleY',t:[0,3000],v:[1,1.2],e:[[1,0,0,.6,1],[0]]}],
"#Reflection-2",[{p:'d',t:[0,500,3000],v:["path('M35.7,201.7L178.3,201.7L198.4,225.5L191.6,332.4L20.3,332.4L13.6,225.5Z')","path('M26,157.7L166.5,185.4L207.1,217.3L199.3,332.1L36,332.1L26,224.4Z')","path('M9.8,171.4L144.3,154.7L223.4,201.8L213.6,331.7L21,331.7L21,332Z')"],e:[[0],[1,0,0,.6,1],[0]]}],
"#Solid",[{p:'d',t:[0,3000],v:["path('M2.3,32.2L27,.8L185,.8L211.3,32.4L199.3,216.8L12,216.8Z')","path('M54,52.4L.1,11.7L144.3,.8L236.1,26.6L223.7,195.7L63.7,236.6Z')"],e:[[1,0,0,.6,1],[0]]}],
"#Left-2",[{p:'d',t:[0,3000],v:["path('M33.4,145.8L26.5,.1L.6,32.3L11.9,217.3Z')","path('M9.8,161.4L.1,11.7L57.5,45.7L63.7,236.6Z')"],e:[[1,0,0,.6,1],[0]]}],
"#Front-2",[{p:'d',t:[0,3000],v:["path('M.6,32.3L211.3,32.3L199.6,217.3L11.9,217.3Z')","path('M57.5,45.7L236.1,26.6L223.7,195.7L63.7,236.6Z')"],e:[[1,0,0,.6,1],[0]]}],
"#Lid-2",[{p:'d',t:[0,3000],v:["path('M.6,32.3L26.5,.1L184.8,.1L211.3,32.3Z')","path('M57.5,45.7L.1,11.7L144.3,.8L236.1,26.6Z')"],e:[[1,0,0,.6,1],[0]]}],
{autoremove:false,markers:{"1":{time: 0},"2":{time:2999},"3":{time:3000}}}).range(0,3000);
if(document.location.search.substr(1).split('&').indexOf('global=paused')>=0)ks.globalPause();})(KeyshapeJS);
]]></script></svg>
