<svg xmlns="http://www.w3.org/2000/svg" xmlns:xlink="http://www.w3.org/1999/xlink" id="_a0" viewBox="0 0 844 844" style="background: rgba(197,184,223,0.00)"><defs><linearGradient id="Gradient-0" x1="0" y1="0" x2="1" y2="0" gradientUnits="userSpaceOnUse" gradientTransform="matrix(0 130.8 -84.5 0 110.6 201.6)"><stop offset="0" stop-color="#381e4f" stop-opacity=".54"/><stop offset=".4" stop-color="#1f112b" stop-opacity=".29"/><stop offset=".6" stop-color="#120a19" stop-opacity=".17"/><stop offset="1" stop-color="#000" stop-opacity="0"/></linearGradient><linearGradient id="Gradient-1" x1="0" y1="0" x2="1" y2="0" gradientUnits="userSpaceOnUse" gradientTransform="matrix(74.7 158.4 -158.4 74.7 34.2 44)"><stop offset="0" stop-color="#13091b"/><stop offset="1" stop-color="#34283e"/></linearGradient><linearGradient id="Gradient-2" x1="0" y1="0" x2="1" y2="0" gradientUnits="userSpaceOnUse" gradientTransform="matrix(1.4 36.8 -36.8 1.4 106.1 -4.5)"><stop offset="0" stop-color="#41324e"/><stop offset="1" stop-color="#8b72a2"/></linearGradient><radialGradient id="Gradient-3" cx="0" cy="0" r="1" fx="0" fy="0" gradientUnits="userSpaceOnUse" gradientTransform="matrix(-285.3 0 0 -43.5 106.2 -11.3)"><stop offset="0" stop-color="#8b72a2"/><stop offset="1" stop-color="#41324e"/></radialGradient><linearGradient id="Gradient-4" x1="0" y1="0" x2="1" y2=".4" gradientUnits="userSpaceOnUse" gradientTransform="matrix(74.7 -66.3 -158.4 -31.3 34.4 158.2)"><stop offset="0" stop-color="#13091b"/><stop offset="1" stop-color="#34283e"/></linearGradient><radialGradient id="Gradient-5" cx="0" cy="0" r="1" fx="0" fy="0" gradientUnits="userSpaceOnUse" gradientTransform="matrix(-214.3 0 0 150.5 106.5 166.3)"><stop offset="0" stop-color="#41324e"/><stop offset="1" stop-color="#8b72a2"/></radialGradient></defs><g id="Box" clip-rule="evenodd" fill-rule="evenodd" stroke-linejoin="round" stroke-miterlimit="2" transform="translate(422,297) translate(0,0) translate(-106.2,-99.4)"><image id="_a1" xlink:href="./Shadow.png" width="200" height="92" preserveAspectRatio="none" transform="translate(106.1,188) translate(0,0) translate(-100,-46)"/><path id="Reflection-2" d="M35.7 201.7h142.6l20.1 23.8l-6.8 106.9h-171.3l-6.7-106.9Z" fill="url(#Gradient-0)" transform="translate(106,267) translate(0,0) translate(-106,-267)"/><g transform="translate(106.2,41.9) translate(-105.4,-41.8)"><path id="Front-2" d="M.9 32.3h210.7l-11.7 185h-187.7Z" fill="url(#Gradient-1)" transform="translate(105.4,124.7) translate(-106.2,-124.8)"/><path id="Top-2" d="M.9 32.3l25.9-32.2h158.3l26.5 32.2h-210.7Z" fill="url(#Gradient-2)" fill-rule="nonzero" transform="translate(105.4,16.1) translate(-106.2,-16.2)"/><path id="Top-Inside-2" d="M9.5 29.3l20.1-25.7h153l20.7 25.7h-193.8Z" fill="#1b1023" fill-rule="nonzero" transform="translate(105.6,16.3) translate(-106.4,-16.4)"/><path id="Lid-2" d="M.9 32.3l25.9-32.2h158.3l26.5 32.2Z" fill="url(#Gradient-3)" visibility="visible" transform="translate(105.4,16.1) translate(-106.2,-16.2)"/><path id="Lid-3" d="M.9 .3l25.9-0.2h158.3l26.5 .2Z" fill="url(#Gradient-4)" fill-rule="nonzero" visibility="visible" transform="translate(105.4,16.1) translate(-106.2,-16.2)"/><path id="Lid-4" d="M.9 .3l25.9-0.2h158.3l26.5 .2Z" fill="url(#Gradient-5)" fill-rule="nonzero" transform="translate(105.4,16.1) translate(-106.2,-16.2)"/><g id="UKHomeOfficeIcon" transform="translate(105.4,187.8) translate(0,0) translate(-36.2,-131.5)"><path d="M39.2 52v19.5h17.4v-19.5h-17.4Zm16.9 19h-16.3v-18.4h16.2l.1 18.4Z" fill="#fff" fill-rule="nonzero" transform="translate(47,61.2) translate(-47.9,-61.7)"/><path d="M55.3 53.2h-14.8v17.1h14.8v-17.1Zm-1 .5v.5h.5v15.1h-0.5v.5h-12.8v-0.5h-0.5v-15.1h.5v-0.5h12.8Z" fill="#fff" fill-rule="nonzero" transform="translate(47,61.2) translate(-47.9,-61.7)"/><path d="M10.4 31.5l-0.1-0.1l-1.5 .7l3.9 9.1l-1 2.2l2.6 1.2h-0.1c-0.7 0-1.4 .3-1.9 .8c-0.5 .5-0.8 1.2-0.8 2c0 1.4 1.1 2.6 2.5 2.7v1.4c-0.8 .7-1.7 1.5-2.5 2.3c-6.9 6.8-10.6 15.9-10.6 25.6c0 7.4 2.2 14.5 6.6 20.7c4.2 5.9 9.9 10.4 16.8 13c0 0 .4 .1 1 .4c.1 1 .7 1.9 1.6 2.2c1 .4 2.1 0 2.7-0.7h.1v10.2c0 3.9 3.2 6.9 7.2 6.9c4.1 0 7.3-3.1 7.3-6.9v-6.8l17.7-8.5c.6-0.2 1.1-0.5 1.6-0.9c1.4-1.3 1.6-3.3 .7-5.9c1.6-1.8 3-3.7 4.1-5.8c3.3-5.5 5-11.6 5-17.9c0-9.7-3.8-18.8-10.6-25.6c-0.8-0.8-1.6-1.5-2.5-2.3v-1.4c1.4-0.1 2.6-1.3 2.6-2.7c0-0.8-0.3-1.5-0.8-2c-0.5-0.5-1.2-0.8-1.9-0.8h-0.2l2.6-1.2l-1-2.2l3.9-9.1l-1.7-0.7l-4 9.3l-2.1 1l1.4 3h-43.7l1.4-3l-2.2-1l-4-9.3h-0.1l3.5-1.6l.2 .6c-1.1 .6-2.2 1.9-0.9 4.9c3-1.3 3.1-3 2.6-4.1l.6-0.2l3 6.8l-0.6 .2c-0.5-1.1-1.8-2.2-4.8-0.9c1.3 3 3.6 4.2 5.4 4.2c3.1 0 5.4-1.9 5.1-3.8c-0.2-1.4-1.6-1.9-2.1-1.8c-0.6 .1-1 .8-0.9 1.2c0 .1 .1 .2 .1 .3l-0.1 .1c-0.8-0.1-1.5-0.7-1.7-1.5c-0.2-1 .5-2 1.5-2.2c.6-0.1 1.2 .1 1.8 .5l.2-0.3c-0.7-0.3-1.1-0.8-1.2-1.5c-0.3-1.7 1.6-3.3 1.7-3.3c0 0 2.3 .8 2.6 2.5c.1 .7-0.1 1.3-0.5 1.8l.3 .2c.2-0.6 .7-1 1.4-1.1c1-0.2 2 .5 2.2 1.5c.2 .8-0.3 1.7-1 2l-0.1-0.1v-0.3c-0.1-0.5-0.7-0.9-1.3-0.8c-0.5 .1-1.5 1-1.2 2.4c.5 2.4 2.5 4.1 4.9 4.1c2.4 0 5-2 5-5c-3.5 0-4.3 1.6-4.3 3h-0.7v-8h.7c0 1.3 .9 3 4.3 3c0-3.6-1.6-4.4-3-4.4v-0.7h8v.7c-1.3 0-3.1 .9-3.1 4.4c3.6 0 4.4-1.6 4.4-3h.7v8h-0.5c0-1.3-0.9-3-4.4-3c0 3 2.6 5 5.1 5c2.4 0 4.5-1.7 4.9-4.1c.3-1.4-0.7-2.4-1.2-2.4c-0.6-0.1-1.2 .3-1.3 .8v.3l-0.1 .1c-0.7-0.4-1.2-1.2-1-2c.2-1 1.2-1.7 2.2-1.5c.6 .1 1.1 .5 1.4 1.1l.3-0.2c-0.4-0.5-0.6-1.2-0.5-1.8c.3-1.7 2.6-2.5 2.6-2.5c0 0 1.9 1.6 1.6 3.3c-0.1 .7-0.6 1.2-1.1 1.5l.2 .3c.4-0.4 1-0.6 1.7-0.5c1 .2 1.7 1.2 1.5 2.2c-0.2 .9-0.9 1.5-1.7 1.5l-0.1-0.1c.1-0.1 .1-0.2 .1-0.3c.1-0.5-0.3-1.1-0.9-1.2c-0.5-0.1-1.8 .4-2 1.8c-0.3 1.9 2 3.8 5 3.8c1.9 0 4.2-1.2 5.5-4.2c-3-1.3-4.3-0.2-4.8 .9l-0.7-0.2l3.1-6.8l.6 .2c-0.5 1.1-0.4 2.8 2.6 4.1c1.3-3 .2-4.3-0.9-4.9l.2-0.6l3.5 1.6v.1c2.1-5.3 1.2-8.4 .1-10.1c-1.4-2.1-3.7-3-5.4-3c-2.4 0-5 1-7.4 2c-2.7 1.1-5.5 2.2-8.3 2c.3-1 .7-2 1.2-2.8l-1.7-0.8c.3-0.6 .6-1.3 .7-2.1c-0.2-0.1-2.5-0.9-6.3-0.9c-3.7 0-5.8 .8-6 .9c.1 .8 .3 1.5 .7 2.1l-1.7 .8c.5 .8 .9 1.8 1.2 2.8c-2.8 .3-5.6-0.9-8.4-2c-2.4-1-4.9-2-7.3-2c-1.7 0-4 .9-5.4 3c-1.1 1.7-2 4.9 .4 10.1Zm32.2 93.8c0 .7-0.2 1.4-0.5 2c-0.3 .6-0.8 .9-1.3 .9c-0.7 0-1.3-0.4-1.6-1.2c0-0.1-0.1-0.4-0.2-0.9c.2 .1 .5 .1 .7 .1c.9 0 1.6-0.7 1.6-1.5c0-0.9-0.7-1.5-1.6-1.5c-0.6 0-1 .2-1.3 .5c-0.5-2-1-4.2-1-4.2h-0.7c0 0-0.5 2.2-1 4.2c-0.3-0.3-0.7-0.5-1.1-0.5c-0.9 0-1.5 .7-1.5 1.5c0 .9 .7 1.5 1.5 1.5c.2 0 .4 0 .6-0.1c-0.1 .4-0.2 .8-0.2 .9c-0.2 .7-0.8 1.2-1.5 1.2c-0.6 0-1.1-0.3-1.4-0.9c-0.3-0.6-0.4-1.3-0.4-2v-9.6c3.2 1 7.2 2.2 11 3l-0.1 6.6Zm.8-8.4c-5.7-1.2-12.2-3.3-16-4.6c.4-1 1-2.6 1.7-4.3l1 .4v.2c0 1.4 1.2 2.6 2.6 2.6c1.4 0 2.6-1.2 2.6-2.6c0-1.4-1.2-2.6-2.6-2.6c-0.8 0-1.4 .3-1.9 .9l-1.1-0.5c.6-1.5 1.1-2.9 1.5-3.7c3.8 1.6 8.8 3.5 13.5 5c5 1.5 9 2.4 12.1 2.7c-5.4 2.7-13 6.3-13.4 6.5Zm-4-5c0 1.4 1.2 2.6 2.6 2.6c1.4 0 2.6-1.2 2.6-2.6c0-1.5-1.2-2.7-2.6-2.7c-1.5 .1-2.6 1.2-2.6 2.7Zm1.3 0c0-0.8 .6-1.4 1.3-1.4c.7 0 1.3 .6 1.3 1.4c0 .7-0.6 1.3-1.3 1.3c-0.8 0-1.3-0.5-1.3-1.3Zm-14.8-0.1c-0.3-0.1-0.6-0.2-0.8-0.3c-6.5-2.5-12-6.8-15.9-12.4c-4.1-5.8-6.3-12.7-6.3-19.7c0-9.2 3.5-17.8 10.1-24.3c.4-0.4 .8-0.8 1.2-1.1v9.4c-1.4-1.1-3-2.1-3.1-2.2c.1-0.1 1.3-2 1.3-2l-1-0.6v.1l-3.2 4.9l1 .6c0 0 1.2-1.9 1.3-2.1c.1 .1 2.2 1.5 3.7 2.6v3.3l-6.6-3v.1l-0.5 1l7.1 3.3v4c-0.5 2-0.8 4-0.8 6.1c0 4.3 1.2 8.3 3.2 11.8c1.3 2.5 3 4.3 4.6 5.8c.7 .6 1.4 1.2 2.3 1.8c.1 0 .1 .1 .2 .1c.1 .1 .2 .1 .3 .2c.1 .1 .2 .1 .3 .2l.1 .1c.6 .4 1.2 .8 1.9 1.1c.9 .4 2.1 1 3.5 1.6l-1.5 3.7l-0.7-0.3c-0.4-0.2-0.9 0-1.1 .4c-0.2 .4 0 .9 .4 1.1l.7 .3l-1.7 4.4Zm-2.4-7.4c-0.1-0.1-3.1-1.9-3.2-2c.1-0.1 1.8-2.8 1.8-2.8l-1-0.6v.1l-4.1 6.5l1 .6c0 0 1.7-2.7 1.8-2.8c.1 .1 3 1.9 3.1 2c-0.1 .1-1.8 2.8-1.8 2.8l1 .6l4.3-6.6l-1-0.6c-0.1 0-1.8 2.6-1.9 2.8Zm38.9 3.2c-0.5 .5-1.7 1-4.2 1c1.6-1.1 3.2-2.5 4.6-4c.4 1.4 .3 2.4-0.4 3Zm-7.1 .8c-2.5-0.3-5.8-1.1-10.1-2.4c-0.2-0.1-0.4-0.1-0.6-0.2c.4-2.5 1.2-4.1 2.6-4.9c2.2-1 4.2-2.4 6-4.1c1.6-1.4 3.3-3.2 4.5-5.6c2-3.5 3.2-7.6 3.2-11.9c0-2.1-0.3-4.2-0.8-6.1v-3.8l1.1 2.8l1.1-0.4c0 0-1.1-2.7-1.1-2.8c.2-0.1 6.2-2.5 6.2-2.5l-0.4-1.1h-0.1l-6.7 2.7v-0.5l4.5-6.5l-0.4-0.7h-0.1l-4 .9v-7.5c.4 .4 .8 .7 1.2 1.1c6.4 6.4 10.1 15.1 10.1 24.2c0 6-1.6 11.9-4.6 17.1c-2.8 5.1-6.8 9.2-11.6 12.2Zm-2.8-9.2l-3.3 2.2l.6 1c0 0 2.3-1.6 2.5-1.7c.1 .1 1.1 1.7 1.2 1.8c-0.1 .1-2.3 1.6-2.3 1.6l.6 1c0 0 2.2-1.5 2.3-1.5c.1 .1 1.1 1.6 1.2 1.8c-0.1 .1-2.4 1.6-2.4 1.6l.6 1l3.4-2.2l-4.4-6.6Zm-8.6 3c-0.4 .9-0.7 1.9-0.9 3c-2-0.7-3.9-1.4-5.9-2.1c2.4 .1 4.7-0.3 6.8-0.9Zm13.5-2.6c-0.8 .1-1.5 .3-2-0.2c-0.3-0.2-0.5-0.8 .1-1.3c.5-0.5 1.2-0.6 2-0.5h.3l-1.2-1.2c-0.8 .1-1.5 .3-2 .9c-0.3 .3-0.6 .8-0.6 1.4c0 .6 .2 1.1 .7 1.6c1.1 1 2.2 .8 3.2 .6c.7-0.2 1.3-0.3 1.8 .1c.1 .2 .2 .3 .2 .5c0 .3-0.1 .5-0.4 .8c-0.4 .4-0.9 .6-1.6 .5h-0.2l1.1 1.1c.6-0.1 1.1-0.3 1.5-0.7c.5-0.5 .7-1 .7-1.5c0-0.5-0.2-1.1-0.7-1.5c-0.9-1-2-0.8-2.9-0.6Zm-38-1c.1-1-0.3-1.9-0.9-2.6c-1.7-2-4-1.6-5.5-0.2c-0.9 .8-1.4 1.8-1.4 2.8c-0.1 1 .3 1.9 1 2.7c1.4 1.6 3.8 1.7 5.5 .2c.7-0.8 1.2-1.8 1.3-2.9Zm-1.2 0c0 .7-0.4 1.5-1 2c-1.2 1.1-2.8 1.1-3.8-0.1c-0.5-0.5-0.7-1.2-0.6-1.8c0-0.7 .4-1.4 1-2c.6-0.5 1.4-0.8 2.1-0.8c.7 0 1.3 .3 1.7 .8c.4 .6 .6 1.2 .6 1.9Zm19.4 2.7v-27.2h20.8v5.2c0 5-0.9 8.4-2.2 10.9c-1.2 1.8-2.5 3.5-4.1 5l-0.3 .4c-3.8 3.6-8.9 5.6-14.2 5.7Zm-21.6-27.2h20.7v27.2c-4.2-0.1-8.3-1.4-11.8-3.8c-0.1-0.1-0.3-0.2-0.4-0.3l-0.1-0.1c-0.1-0.1-0.2-0.1-0.3-0.2c-0.1-0.1-0.2-0.2-0.3-0.2l-0.1-0.1c-2.3-1.8-4.2-4-5.6-6.5c-1.3-2.5-2.1-5.9-2.1-10.9v-5.1Zm35.6 17.1h-1.8c0-0.5-0.5-1-1-1c-0.3 0-0.5 .1-0.7 .3l-1.3 1.3h4.9c.3 0 .5 .2 .5 .5c0 .3-0.2 .5-0.5 .5h-5.9v-1l1.5-1.5h-5.9l1.5 1.5v2.5l-2.4-2.2c.2-0.2 .4-0.5 .4-0.8c0-0.6-0.5-1-1-1c-0.2 0-0.5 .1-0.8 .2v1.7l3.9 3.6l.2-0.2l-2.4 2.9c-0.2-0.2-0.5-0.2-0.7-0.2c-0.6 .1-1.1 .6-1 1.1c0 .2 .1 .4 .3 .6c.4 0 .9-0.1 1.7-0.2l2.7-3.2c.4-0.1 .7-0.3 1.1-0.4l1.1 1l-0.6 .3c-0.3-0.2-0.7-0.3-1-0.2c-0.5 .2-0.8 .8-0.6 1.3c.1 .2 .2 .3 .3 .4c0 0 .4-0.1 .8-0.3c.4-0.2 .8-0.3 .8-0.3c.5-0.2 .9-0.4 1.3-0.6v-2.8c.7-0.4 1.3-0.8 1.8-1.3l1 .9c-0.2 .2-0.4 .3-0.7 .5c-0.3-0.2-0.7-0.2-1 0c-0.2 .2-0.4 .5-0.5 .7v.4c0 .1 .1 .3 .1 .4c.1 .2 .3 .3 .5 .4c.5-0.3 .9-0.6 1.4-0.9c.4-0.3 .7-0.6 1-0.8l.3-0.4v-1.3h.7c.7 0 1.2-0.5 1.2-1.2c0-0.6-0.5-1.2-1.2-1.2Zm-17-13.5c0-1.3-1-2.3-2.3-2.3h-13.1c-1.1 0-2 .9-2 2c0 .8 .6 1.4 1.4 1.4c.8 0 1.4-0.6 1.4-1.5c.3 .3 .6 .5 1 .7c-0.2 1.1-0.4 2.2-0.5 3.3c-0.2-0.3-0.5-0.4-0.8-0.4c-0.5 0-1 .4-1 1c0 .5 .4 1 1 1c.3 0 .6-0.2 .8-0.4c0 .7 0 1.4 .1 2.2c-0.2-0.1-0.4-0.2-0.6-0.2c-0.5 0-1 .4-1 1c0 .5 .4 1 1 1c.3 0 .7-0.2 .8-0.5c0 .1 0 .2 .1 .3c.2 .6 .4 1.2 .6 1.7c-0.1-0.1-0.3-0.1-0.5-0.1c-0.5 0-1 .4-1 1c0 .6 .5 1 1 1c.5 0 .9-0.4 1-0.8c.4 .7 .8 1.3 1.3 1.8h-0.2c-0.6 0-1.1 .4-1.1 1c0 .6 .4 1 1.1 1c.5 0 1-0.4 1-1v-0.1c1.6 1.7 3.5 2.9 5.7 3.8l-0.4 3c0 0 .9 .4 2.3 .8c.9 .2 1.8 .4 2.7 .6l.2-22.3Zm25.4 12.4l-0.5 .8c0 0 4.4 2.8 4.8 3.1c-0.5 0-7.1 .6-7.1 .6l-0.5 .9l6.6 4.2l.6-0.9c0 0-4.4-2.8-4.8-3.1c.5 0 7.2-0.8 7.2-0.8l.5-0.8l-6.8-4Zm-44.7 1.9c0 0-4.8 2.2-5.2 2.4c.2-0.4 3.3-6.5 3.3-6.5l-0.4-0.9h-0.1l-7.1 3.3l.5 1c0 0 4.9-2.2 5.3-2.4c-0.2 .4-3.3 6.6-3.3 6.6l.4 .8l7-3.4l-0.4-0.9Zm7.4-13.1c0 0 .1 0 .2 .1l7.2 14.5c-8.9-4-8-11.2-7.4-14.6Zm21.5 14.2l-1-1h2l-1 1Zm-13.9-0.7l-6.5-13.2c.4 .2 .8 .2 1.2 .2l5.6 11.3l-0.3 1.7Zm31.2-6.8l-1.3 3.8l1.1 .4c0 0 .9-2.7 .9-2.8c.1 .1 1.9 .6 2.1 .7c-0.1 .2-0.9 2.6-0.9 2.6l1.1 .4c0 0 .8-2.5 .9-2.6c.1 .1 1.9 .6 2 .7c-0.1 .2-0.9 2.7-0.9 2.7l1.1 .4l1.3-3.8l-7.4-2.5Zm-30.8 3.9l-5-10.3c.4 0 .7-0.1 1-0.2l4.2 8.7l-0.2 1.8Zm25.6-4c0 0 0 0 0 0c-0.1 .1-0.9 .1-0.9 .1v-0.5c0-0.7-0.6-1.2-1.3-1.2h-4.3c0-0.5-0.5-1-1-1c-0.3 0-0.5 .1-0.7 .3l-1.3 1.3h7.3c.3 0 .5 .2 .5 .5c0 .3-0.2 .5-0.5 .5h-8.5v-1.2l1.5-1.5h-5.9l1.5 1.5v2.2l-2.4-1.9c.2-0.2 .3-0.5 .3-0.8c0-0.6-0.5-1-1-1c-0.2 0-0.6 .1-0.8 .2v1.8l3.8 3l-1.7 .5c-0.1-0.4-0.5-0.7-1-0.7c-0.6 0-1.1 .5-1.1 1c0 .2 .1 .5 .2 .6h2.2l9.2-2.9v1.4l-1.2 .5c-0.1-0.5-0.5-0.8-1-0.8c-0.6 0-1 .5-1 1c0 .2 .1 .5 .2 .6h2.3l1.4-0.7l.9-0.4l-0.4-0.9v-0.2h3.4c0 .1-0.1 .3-0.1 .4c-0.1 .2-0.2 .5-0.3 .7c-0.2-0.2-0.5-0.3-0.8-0.3c-0.6 0-1 .5-1 1c0 .2 .1 .5 .2 .6h2.1c.4-0.6 .6-1.3 .7-1.7c.2-0.9 .4-1.7 .5-2Zm-43.6-0.6l-0.1 .1l-7.6 1.8l.3 1.2l7.6-1.9l-0.2-1.2Zm18.4 1.7l-3.8-7.7c.3-0.1 .6-0.2 .9-0.4l3.1 6.3l-0.2 1.8Zm31.1-5.5l-0.1 1.1c0 0 3.1 .4 3.3 .5c0 .1-0.1 .9-0.1 .9v.5c0 .5 .1 1 .4 1.4c.3 .4 .8 .7 1.5 .8c1.4 .2 2.4-0.5 2.6-1.9l.3-2.2l-7.9-1.1Zm-18 4.6l-1-1h2l-1 1Zm24.4-2.6c0 .1-0.1 1.1-0.1 1.1c-0.1 1-0.9 1-1.2 .9c-0.6-0.1-1-0.5-1-1v-0.2c0 0 .1-0.8 .1-1c.2-0.1 2.1 .1 2.2 .2Zm-59.5-0.7c-0.3-0.2-0.6-0.3-0.9-0.2c-0.3 0-0.6 .2-0.8 .5c-0.2 .3-0.3 .6-0.2 .9c0 .3 .2 .6 .5 .8c.3 .2 .6 .3 .9 .2c.7-0.1 1.1-0.7 1-1.4c-0.1-0.4-0.3-0.6-0.5-0.8Zm22.4 1.3l-2.7-5.5c.3-0.2 .6-0.4 .8-0.6l2.1 4.3l-0.2 1.8Zm24-5.6c.1-0.2 .1-0.3 .1-0.5c0-0.7-0.6-1.2-1.3-1.2h-4.5c0-0.5-0.5-1-1-1c-0.3 0-0.5 .1-0.7 .3l-1.3 1.3h7.6c.3 0 .5 .2 .5 .5c0 .3-0.2 .5-0.5 .5h-8.8v-1.2l1.5-1.5h-5.9l1.5 1.5v2.2l-2.4-1.9c.2-0.2 .3-0.5 .3-0.7c0-0.6-0.5-1-1-1c-0.2 0-0.6 .1-0.8 .2v1.8l3.7 3l-1.7 .5c-0.1-0.4-0.5-0.7-1-0.7c-0.6 0-1.1 .5-1.1 1c0 .2 .1 .5 .2 .7h2.2l9.2-3v1.6l-1.2 .4c-0.1-0.4-0.5-0.7-1-0.7c-0.6 0-1 .5-1 1c0 .2 .1 .5 .2 .7h2.3l2.3-0.7l1.1-0.4l-0.9-0.8l-0.6-0.6h4.2v1.1c-0.2-0.2-0.6-0.4-0.9-0.4c-0.6 0-1 .5-1 1c0 .2 .1 .5 .2 .7h2.7v-3.8l-1.2 .1Zm-46.9 1.3c.5-0.8 .9-1.4 1.6-1.4c.2 0 .4 .1 .6 .3c.2 .2 .3 .5 .3 .8c0 .7-0.4 1.3-1.1 1.8l-0.2 .2h1.7c.5-0.6 .7-1.2 .7-2.1c0-0.5-0.2-1-0.5-1.4c-0.4-0.4-1-0.6-1.6-0.6c-1.4 0-2 .9-2.6 1.8c-0.4 .7-0.8 1.3-1.4 1.3c-0.1 0-0.3-0.1-0.5-0.2c-0.2-0.2-0.3-0.5-0.3-0.9c0-0.5 .3-1.1 .8-1.5l.2-0.1h-1.5c-0.4 .5-0.6 1-0.6 1.6c0 .8 .2 1.3 .6 1.7c.4 .4 .9 .6 1.5 .6c1.1-0.2 1.7-1.1 2.3-1.9Zm23.6-0.8l-0.3 2.3l-1.7-3.6c.2-0.1 .4-0.1 .6-0.1c.4 0 .8 .1 1 .4c.3 .3 .5 .7 .4 1Zm32.8 .4c0 .4 .1 .7 .4 1c.2 .2 .5 .4 .9 .3c.3 0 .6-0.1 .9-0.4c.2-0.2 .3-0.5 .3-1c0-0.3-0.1-0.6-0.4-0.9c-0.2-0.2-0.5-0.4-0.9-0.4c-0.7 .1-1.2 .7-1.2 1.4Zm-20.8-0.8l-1-1h2l-1 1Zm17.7-3.1l.2 1.1l4-0.6c.1 0 4 2 4 2l-0.2-1.4l-2.8-1.4c.2-0.2 2.3-2.1 2.3-2.1l-0.2-1.4l-0.1 .1c0 0-3.1 2.9-3.2 3c0 .1-4 .7-4 .7Zm-53.8 .9c1.1 .3 2.2 .1 3.1-0.4c.8-0.5 1.4-1.3 1.6-2.3c.2-1 .1-2-0.4-2.8c-0.5-0.9-1.5-1.6-2.6-1.8c-2.2-0.6-4.4 .6-4.9 2.7c-0.1 .3-0.1 .6-0.1 .9c0 .7 .2 1.3 .5 1.8c.7 1 1.7 1.7 2.8 1.9Zm-1.9-4.3c.2-0.7 .6-1.2 1.2-1.6c.6-0.4 1.4-0.5 2.2-0.3c.8 .2 1.5 .7 1.8 1.3c.3 .6 .4 1.2 .3 1.9c-0.4 1.4-1.8 2.2-3.4 1.8c-1.6-0.3-2.5-1.6-2.1-3.1Zm31.4 1.5v-23h20.8v23h-20.8Zm-21.6 0v-23h20.7v23h-20.7Zm22.7-1.7c-0.3 0-0.5-0.2-0.5-0.5c0-0.3 .2-0.5 .5-0.5h.2v.1c-0.1 .1-0.1 .1-0.1 .2c0 .1 .1 .2 .2 .2c.2 0 .3-0.1 .3-0.2v.2h.2v.3l.1 .1l.2-0.1v.2c0 0 0 0 .1 0h.2c-0.1 0-0.2 .1-0.2 .2c0 .1 .1 .2 .2 .2c.1 0 .1 0 .2-0.1h.1v.2c0 .3-0.2 .5-0.5 .5c-0.3 0-0.5-0.2-0.5-0.5h-0.1l-1 .6l-0.1-0.2l.5-0.9Zm17.9-0.5v-0.2c0 .1 .1 .2 .2 .2c.1 0 .2-0.1 .2-0.2c0-0.1 0-0.1-0.1-0.2v-0.1h.2c.3 0 .5 .2 .5 .5c0 .3-0.2 .5-0.5 .5l.5 .9l-0.1 .2l-0.9-0.6h-0.1c0 .3-0.2 .5-0.5 .5c-0.3 0-0.5-0.2-0.5-0.5v-0.2h.1c.1 .1 .1 .1 .2 .1c.1 0 .2-0.1 .2-0.2c0-0.1-0.1-0.2-0.2-0.2h.2c0 0 0 0 .1 0v-0.2l.2 .1l.1-0.1v-0.3h.2Zm8.8 1.4c.3-0.1 .6-0.3 .7-0.6c.2-0.3 .2-0.6 .1-0.9c-0.1-0.3-0.3-0.6-0.6-0.7c-0.3-0.2-0.6-0.2-0.9-0.1c-0.3 .1-0.6 .3-0.7 .6c-0.2 .3-0.2 .6-0.1 .9c.2 .6 .9 .9 1.5 .8Zm-31.5-4c.1-0.2 .1-0.3 .1-0.5c0-0.7-0.5-1.2-1.2-1.2h-4.5c0-0.5-0.5-1-1-1c-0.3 0-0.5 .1-0.7 .3l-1.3 1.3h7.6c.3 0 .5 .2 .5 .5c0 .3-0.2 .5-0.5 .5h-8.7v-1.2l1.5-1.5h-6l1.5 1.5v2.2l-2.4-1.9c.2-0.2 .3-0.5 .3-0.7c0-0.6-0.5-1-1-1c-0.3 0-0.5 .1-0.7 .2v1.8l3.6 2.9l-1.7 .5c-0.1-0.4-0.5-0.7-1-0.7c-0.5 0-1 .4-1 1c0 .3 .1 .5 .2 .7h2.1l9.3-2.9v1.5l-1.2 .4c-0.1-0.4-0.5-0.7-1-0.7c-0.6 0-1 .4-1 1c0 .3 .1 .5 .2 .7h2.1l2.3-0.7l1.1-0.3l-0.9-0.8l-0.6-0.6h4.1v1.1c-0.2-0.2-0.5-0.4-0.8-0.4c-0.6 0-1 .5-1 1c0 .3 .1 .5 .2 .7h2.6v-3.7h-1.1Zm14.3 2.9l-0.3-0.1h-0.2l-0.1 .1l-0.4 .8h1.4l-0.4-0.8Zm.1-1.9c.1-0.2 .2-0.3 .4-0.3c.2 0 .4 .2 .4 .4c-0.1 0-0.1 0-0.1 .1l-0.1-0.1c-0.1 0-0.2 .1-0.2 .2c0 .1 .1 .2 .2 .2h-0.2v.1h-1.5v-0.1c0 0-0.1 0-0.1 0h-0.2c.1 0 .2-0.1 .2-0.2c0-0.1-0.1-0.2-0.2-0.2l-0.1 .1c0-0.1 0-0.1-0.1-0.1c0-0.2 .2-0.4 .4-0.4c.2 0 .3 .1 .4 .3l.3-0.6h.2l.3 .6Zm5.3-11.3l-0.8 .8c0 0-0.1 0-0.1 .1l-1.5 1.4c-0.5 .4-0.6 1.1-0.2 1.6l.9 1.3c.1 .1 .1 .2 .1 .4c0 .1-0.1 .3-0.2 .3c-0.1 .1-0.2 .1-0.4 .1c-0.1 0-0.3-0.1-0.3-0.2c0 0-0.9-1.3-1.3-1.9v-1.7l2.1-2v-1.7l-0.7-0.7l.9-0.9h-3.7l-0.9 .9v1c.1-0.1 .3-0.1 .4-0.1c.4 0 .8 .4 .8 .8c0 .4-0.4 .8-0.8 .8c-0.1 0-0.3 0-0.4-0.1v1.2h-1.3l-1.5-2.1c.2-0.2 .3-0.5 .3-0.8c0-0.6-0.5-1-1-1c-0.2 0-0.4 .1-0.6 .2v1.7h.1l2.1 3h1.7l-0.9 .9h-1.8c-0.1-0.4-0.5-0.6-0.9-0.6c-0.4 0-0.8 .3-0.9 .6c0 .1-0.1 .2-0.1 .4c0 .2 .1 .5 .2 .6h4.1l.7 1.1h-2.8l1.1 1.5l.6 .8h-1.4c-0.1-0.4-0.5-0.7-1-0.7c-0.4 0-0.8 .3-1 .7v.3c0 .3 .1 .5 .3 .7h5.1l-0.7-1l-0.6-0.8h1.6l.6 .8l.7 1h2.4v1.1h-0.3c-0.1-0.4-0.5-0.7-1-0.7c-0.5 0-0.8 .3-1 .7v.3c0 .3 .1 .5 .3 .7h3v-3.2h-2l-1-1.3c.2 .2 .4 .4 .7 .4c.3 0 .6 0 .9-0.2c.3-0.2 .4-0.5 .5-0.8c0-0.3 0-0.7-0.2-1l-0.9-1.2c-0.2-0.2-0.1-0.6 .1-0.7l.4-0.4c.4 .3 .9 .3 1.3 0c.2-0.2 .3-0.4 .3-0.7l-0.1-1.7Zm-31.1 10.4l-1-1h2.1l-1.1 1Zm38.1-3.2l-0.4 .6v-1.2l.4 .6Zm-26.6-4.3c0 .1 0 .2-0.1 .2v-0.2h.1c0-0.1 0-0.1 0-0.3c0-0.7-0.5-1.2-1.2-1.2h-4.5c0-0.5-0.5-1-1-1c-0.3 0-0.5 .1-0.7 .3l-1.3 1.3h7.5c.3 0 .5 .2 .5 .5c0 .3-0.2 .5-0.5 .5h-8.7v-1.2l1.5-1.5h-6l1.5 1.5v2.2l-2.4-1.9c.2-0.2 .3-0.5 .3-0.7c0-0.6-0.5-1-1-1c-0.3 0-0.5 .1-0.7 .2v1.8l3.6 3l-1.7 .5c-0.1-0.4-0.5-0.7-1-0.7c-0.6 0-1 .5-1 1c0 .2 .1 .5 .2 .7h2.1l9.3-3v1.6l-1.2 .4c-0.1-0.4-0.5-0.7-1-0.7c-0.6 0-1 .5-1 1c0 .2 .1 .5 .2 .7h2.2l2.3-0.7l1.1-0.4l-0.9-0.9l-0.6-0.6h4.1v1.2c-0.2-0.2-0.5-0.5-0.8-0.5c-0.6 0-1 .6-1 1.1c0 .2 .1 .5 .2 .7h2.6v-3.9h-1Zm26.3 1.6c.2 0 2.2-0.5 2.5-0.6c-0.2 .3-1.4 2.1-1.5 2.2c-0.1-0.1-0.9-1.4-1-1.6Zm-19.3-1.6v-0.2c0 .1 .1 .2 .2 .2c.1 0 .2-0.1 .2-0.2l-0.1-0.1c0-0.1 .1-0.1 .1-0.1c.2 0 .4 .2 .4 .4c0 .2-0.2 .3-0.3 .4l.5 .2v.2l-0.6 .3v-0.7c-0.1 0-0.1 0-0.1 0v.8c0-0.1 0-0.1 .1-0.1c.2 0 .4 .2 .4 .4c0 .3-0.2 .4-0.4 .4c0 0-0.1 0-0.1-0.1l.1-0.1c0-0.1-0.1-0.2-0.2-0.2c-0.1 0-0.2 .1-0.2 .2v-0.2h-0.3v-1.5h.3Zm13.4 .4c-0.2-0.1-0.2-0.2-0.3-0.4c0-0.2 .2-0.4 .4-0.4l.1 .1l-0.1 .1c0 .1 .1 .2 .2 .2c.1 0 .2-0.1 .2-0.2v.2h.1v1.5h-0.1v.2c0-0.1-0.1-0.2-0.2-0.2c-0.1 0-0.2 .1-0.2 .2l.1 .1l-0.1 .1c-0.2 0-0.3-0.1-0.4-0.4c0-0.1 .2-0.3 .3-0.3v-0.1l-0.6-0.3v-0.2l.6-0.2Zm-15.7 1v-1.4l.9 .4v.4l.2-0.1l-0.2 .2h.1l-0.1 .1l-0.9 .4Zm18.4 0v-1.4l-0.8 .4v.4l-0.2-0.1l.2 .2h-0.1l.1 .1l.8 .4Zm-34.6-1.1l-1-1h2.1l-1.1 1Zm11.4-7.3c.1-0.2 .1-0.3 .1-0.5c0-0.7-0.5-1.2-1.2-1.2h-4.5c0-0.5-0.5-1-1-1c-0.3 0-0.5 .1-0.7 .3l-1.3 1.3h7.5c.3 0 .5 .2 .5 .5c0 .3-0.2 .5-0.5 .5h-8.7v-1.2l1.5-1.5h-6l1.5 1.5v2.2l-2.4-1.9c.2-0.2 .3-0.5 .3-0.7c0-0.6-0.5-1-1-1c-0.3 0-0.5 .1-0.7 .2v1.8l3.6 2.9l-1.7 .5c-0.1-0.4-0.5-0.7-1-0.7c-0.6 0-1 .5-1 1c0 .3 .1 .5 .2 .7h2.1l9.3-2.9v1.5l-1.2 .4c-0.1-0.4-0.5-0.7-1-0.7c-0.6 0-1 .5-1 1c0 .3 .1 .5 .2 .7h2.1l2.3-0.7l1.1-0.3l-0.9-0.8l-0.6-0.6h4.1v1.1c-0.2-0.2-0.5-0.4-0.8-0.4c-0.6 0-1 .5-1 1c0 .3 .1 .5 .2 .7h2.6v-3.8l-1 .1Zm14.1 .7h-0.2l-0.3-0.6h.8l-0.3 .6Zm.6-1c0 0 .1 0 .1 0h.2c-0.1 0-0.2 .1-0.2 .2c0 .1 .1 .2 .2 .2l.1-0.1c0 .1 0 .1 .1 .1c0 .2-0.2 .4-0.4 .4c-0.2 0-0.4-0.2-0.4-0.4c0 0 0-0.1 0-0.1h-0.8c0 0 0 .1 0 .1c0 .2-0.2 .4-0.4 .4c-0.2 0-0.4-0.2-0.4-0.4c.1 0 .1 0 .1-0.1l.1 .1c.1 0 .2-0.1 .2-0.2c0-0.1-0.1-0.2-0.2-0.2h.2v-0.3h1.5v.3Zm-26.1 .5l-1-1h2.1l-1.1 1Zm34-2.7h.1l.9-0.5l.1 .1l-0.5 .9v.1c.3 0 .5 .2 .5 .5c0 .3-0.2 .5-0.5 .5h-0.2v-0.1c.1-0.1 .1-0.1 .1-0.2c0-0.1-0.1-0.2-0.2-0.2c-0.1 0-0.2 .1-0.2 .2v-0.2h-0.2v-0.3l-0.1-0.1v-0.1l-0.2 .1v-0.2c-0.1 0-0.1 0-0.1 0h-0.2c.1 0 .2-0.1 .2-0.2c-0.1-0.1-0.1-0.2-0.2-0.2c-0.1 0-0.1 0-0.2 .1h-0.1v-0.2c0-0.3 .2-0.5 .5-0.5c.3 0 .5 .2 .5 .5Zm-17.8 .6v-0.1l-0.5-0.9l.1-0.1l1 .5h.1c0-0.3 .2-0.5 .5-0.5c.3 0 .5 .2 .5 .5v.2h-0.1c-0.1-0.1-0.1-0.1-0.2-0.1c-0.1 0-0.2 .1-0.2 .2c0 .1 .1 .2 .2 .2h-0.2c-0.1 0-0.1 0-0.1 0v.2l-0.2-0.1v.1l-0.1 .1v.3h-0.2v.2c0-0.1-0.1-0.2-0.3-0.2c-0.1 0-0.1 .1-0.2 .2c0 .1 0 .1 .1 .2v.1h-0.2c-0.3 0-0.5-0.2-0.5-0.5c0-0.3 .2-0.5 .5-0.5Zm9.9-0.6h-1.4l.4 .8h.4l-0.1 .3l.1-0.2h.1l.1-0.1l.4-0.8Zm-32.6-5.2l5.2 1.2l-5.2 1.1v-2.3Zm9.5 0l5.2 1.2l-5.2 1.1v-2.3Zm9.7 0l5.3 1.2l-5.3 1.1v-2.3Zm9.7 0l5.2 1.2l-5.2 1.1v-2.3Zm9.5 0l5.3 1.2l-5.3 1.1v-2.3Zm-19.6-4.6l2.3-2.3l2.4 2.3l-2.4 2.3l-2.3-2.3Zm-10.9 0c0-0.9 .8-1.7 1.7-1.7c.9 0 1.7 .8 1.7 1.7c0 .9-0.8 1.7-1.7 1.7c-0.9 0-1.7-0.8-1.7-1.7Zm26.5 0c0-0.9-0.8-1.7-1.7-1.7c-0.9 0-1.7 .8-1.7 1.7c0 .9 .8 1.7 1.7 1.7c.9 0 1.7-0.8 1.7-1.7Zm-44.5-11.6c0-0.8 .7-1.5 1.6-1.5c.9 0 1.5 .7 1.5 1.5c0 1-0.7 1.6-1.5 1.6c-0.9 0-1.6-0.7-1.6-1.6Zm62.4 0c0-0.8-0.7-1.5-1.5-1.5c-0.9 0-1.5 .7-1.5 1.5c0 1 .7 1.6 1.5 1.6c.8 0 1.5-0.7 1.5-1.6Zm-36.5-4.3c-1.7 0-3.1 .9-3.9 2.3c-0.9-1.6-2.9-2.6-4.8-2.2c-1.5 .3-2.7 1.3-3.2 2.5c-0.8-1.3-2.2-2.1-3.8-2.1c-2 0-3.7 1.3-4.3 3.1c-1.1-2.9-1.1-5.3 0-7c1.1-1.7 3-2.2 3.8-2.2c2.1 0 4.3 .9 6.6 1.8c3.1 1.2 6.2 2.5 9.6 2c.1 .6 .2 1.1 .3 1.7c-0.1 .1-0.2 .1-0.3 .1Zm30.7 3.6c-0.6-1.8-2.4-3.1-4.3-3.1c-1.6 0-3.1 .8-3.9 2.1c-0.6-1.2-1.7-2.2-3.1-2.5c-2-0.4-3.9 .5-4.8 2.2c-0.8-1.3-2.2-2.3-3.9-2.3h-0.3c.1-0.5 .2-1.1 .3-1.7c3.4 .5 6.5-0.8 9.5-2c2.3-0.9 4.6-1.8 6.7-1.8c.8 0 2.7 .5 3.8 2.2c1.1 1.6 1.1 4 0 6.9Zm-25.4-1.1c-0.4 0-0.9-0.2-1.2-0.5c-0.4-0.3-0.6-0.8-0.6-1.3c0-1 .8-1.8 1.8-1.8c1 0 1.8 .8 1.8 1.8c.1 .5-0.1 1-0.5 1.3c-0.3 .3-0.8 .5-1.3 .5Zm-32-2.1c0-0.9 .7-1.5 1.5-1.5c.9 0 1.6 .7 1.6 1.5c0 .8-0.7 1.5-1.6 1.5c-0.8 .1-1.5-0.6-1.5-1.5Zm64 0c0-0.9-0.7-1.5-1.5-1.5c-0.8 0-1.5 .7-1.5 1.5c0 .8 .7 1.5 1.5 1.5c.8 .1 1.5-0.6 1.5-1.5Zm-30.3-1.8c-0.4-0.4-1-0.6-1.7-0.6c-0.7 0-1.2 .2-1.7 .6c-0.1-0.2-0.1-0.4-0.1-0.6c0-1 .8-1.8 1.8-1.8c1 0 1.8 .8 1.8 1.8c0 .2 0 .4-0.1 .6Zm29.9-2.1c0-0.8-0.7-1.5-1.5-1.5c-0.9 0-1.5 .7-1.5 1.5c0 .8 .7 1.5 1.5 1.5c.9 0 1.5-0.7 1.5-1.5Zm-63.3 0c0-0.8 .7-1.5 1.6-1.5c.9 0 1.5 .7 1.5 1.5c0 .8-0.7 1.5-1.5 1.5c-0.9 0-1.6-0.7-1.6-1.5Zm33.5-0.4c-0.5-0.4-1.1-0.7-1.8-0.7c-0.7 0-1.3 .3-1.8 .7v-0.1c0-1 .8-1.8 1.8-1.8c1 0 1.8 .8 1.8 1.8v.1Zm-12.9-2.4c0-0.8 .7-1.5 1.5-1.5c.8 0 1.5 .7 1.5 1.5c0 .9-0.7 1.5-1.5 1.5c-0.8 .1-1.5-0.6-1.5-1.5Zm22.3 0c0-0.8-0.7-1.5-1.5-1.5c-0.8 0-1.5 .7-1.5 1.5c0 .9 .7 1.5 1.5 1.5c.8 .1 1.5-0.6 1.5-1.5Zm18.4-0.6c0-0.8-0.7-1.5-1.5-1.5c-0.8 0-1.5 .7-1.5 1.5c0 .8 .7 1.5 1.5 1.5c.8 .1 1.5-0.6 1.5-1.5Zm-59.1 0c0-0.8 .7-1.5 1.5-1.5c.9 0 1.5 .7 1.5 1.5c0 .8-0.7 1.5-1.5 1.5c-0.8 .1-1.5-0.6-1.5-1.5Zm29.5-0.7c.9 0 1.7 .7 1.8 1.6c-0.5-0.4-1.1-0.7-1.8-0.7c-0.7 0-1.3 .3-1.8 .7c.1-0.9 .9-1.6 1.8-1.6Zm-14.9 0c0-0.8 .7-1.5 1.6-1.5c.9 0 1.5 .7 1.5 1.5c0 .9-0.7 1.5-1.5 1.5c-0.9 0-1.6-0.7-1.6-1.5Zm29.7 0c0-0.8-0.7-1.5-1.5-1.5c-0.8 0-1.5 .7-1.5 1.5c0 .9 .7 1.5 1.5 1.5c.9 0 1.5-0.7 1.5-1.5Zm3.8-1.5c0-0.8-0.8-1.5-1.6-1.5c-0.9 0-1.5 .7-1.5 1.5c0 .8 .7 1.5 1.5 1.5c.9 .1 1.6-0.6 1.6-1.5Zm-37.2 0c0-0.8 .7-1.5 1.5-1.5c.9 0 1.5 .7 1.5 1.5c0 .8-0.7 1.5-1.5 1.5c-0.8 .1-1.5-0.6-1.5-1.5Zm45-0.1c0-0.8-0.7-1.5-1.5-1.5c-0.9 0-1.5 .7-1.5 1.5c0 .9 .7 1.5 1.5 1.5c.8 .1 1.5-0.6 1.5-1.5Zm-52.7 0c0-0.8 .7-1.5 1.5-1.5c.8 0 1.5 .7 1.5 1.5c0 .9-0.7 1.5-1.5 1.5c-0.8 .1-1.5-0.6-1.5-1.5Zm26.3-0.1c.9 0 1.7 .7 1.8 1.6c-0.5-0.4-1.1-0.7-1.8-0.7c-0.7 0-1.3 .3-1.8 .7c.1-0.9 .9-1.6 1.8-1.6Zm-22.4-0.6c0-0.8 .7-1.6 1.5-1.6c.9 0 1.5 .8 1.5 1.6c0 .8-0.7 1.5-1.5 1.5c-0.8 .1-1.5-0.6-1.5-1.5Zm44.9 0c0-0.8-0.7-1.6-1.5-1.6c-0.9 0-1.5 .8-1.5 1.6c0 .8 .7 1.5 1.5 1.5c.8 .1 1.5-0.6 1.5-1.5Zm-24.1-6.2c-2.2 .6-3.9 2.5-4.4 4.8c.8-0.2 2.3-0.6 4.4-0.7v-4.1Zm3.2 0v4.1c2.2 .1 3.7 .5 4.5 .7c-0.4-2.4-2.1-4.2-4.5-4.8Zm-2.5-2.9c0 1.4-0.3 2.3-0.7 2.9c0 0 .7-0.2 1.6-0.2c.6 0 1.5 .2 1.6 .2c-0.4-0.6-0.7-1.5-0.7-2.9c3.2 0 3.9 1.4 3.9 2.6h.6v-7h-0.6c0 1.2-0.8 2.6-3.9 2.6c0-3.1 1.5-3.8 2.7-3.8v-0.6h-7.1v.6c1.2 0 2.6 .8 2.6 3.8c-3.1 0-3.8-1.4-3.8-2.6h-0.6v7h.6c0-1.2 .7-2.6 3.8-2.6Z" fill="#fff" fill-rule="nonzero" transform="translate(36.2,65.8) translate(-37.1,-66.3)"/></g></g></g><script xlink:href="eyshapejs-1.2.0.min.js"/><script><![CDATA[if(KeyshapeJS.version.indexOf('1.')!=0)throw Error('Expected KeyshapeJS v1.*.*');window.ks=document.ks=KeyshapeJS;(function(ks){
var tl=ks.animate("#_a0",[{p:'opacity',t:[2000,2500],v:[1,0],e:[[0],[0]]}],
"#Box",[{p:'mpath',t:[1250,2292],v:['0%','100%'],e:[[1,.4,0,1,1],[0]],mp:"M422,297L422,-164.8"},{p:'scaleX',t:[1250,2292],v:[1,5],e:[[1,.4,0,1,1],[0]]},{p:'scaleY',t:[1250,2292],v:[1,5],e:[[1,.4,0,1,1],[0]]}],
"#_a1",[{p:'mpath',t:[1250,1667],v:['0%','100%'],e:[[0],[0]],mp:"M106.1,188L106.1,227"},{p:'opacity',t:[1250,1667],v:[1,0],e:[[0],[0]]}],
"#Reflection-2",[{p:'mpath',t:[1250,1875],v:['0%','100%'],e:[[1,.4,0,1,1],[0]],mp:"M106,267L106,384.2"},{p:'opacity',t:[1250,1875],v:[1,0],e:[[0],[0]]},{p:'d',t:[1250,1875],v:["path('M35.7,201.7L178.3,201.7L198.4,225.5L191.6,332.4L20.3,332.4L13.6,225.5Z')","path('M35.7,180.9L178.3,180.9L198.4,225.5L214.5,332.4L-7.2,332.4L13.6,225.5Z')"],e:[[0],[0]]}],
"#Front-2",[{p:'d',t:[1250,2292],v:["path('M.9,32.3L211.6,32.3L199.9,217.3L12.2,217.3Z')","path('M6.2,324.4L206.2,324.4L175.1,324.4L37.1,324.4Z')"],e:[[1,.4,0,1,1],[0]]}],
"#Top-2",[{p:'d',t:[1250,2292],v:["path('M.9,32.3L26.8,.1L185.1,.1L211.6,32.3C211.6,32.3,.9,32.3,.9,32.3Z')","path('M6.2,324.4L6.2,124.4L206.2,124.4L206.2,324.4C206.2,324.4,6.2,324.4,6.2,324.4Z')"],e:[[1,.4,0,1,1],[0]]}],
"#Top-Inside-2",[{p:'d',t:[1250,2292],v:["path('M9.5,29.3L29.6,3.6L182.6,3.6L203.3,29.3C203.3,29.3,9.5,29.3,9.5,29.3Z')","path('M12.2,318.4L12.2,131L200,131L200,318.4C200,318.4,12.2,318.4,12.2,318.4Z')"],e:[[1,.4,0,1,1],[0]]}],
"#Lid-2",[{p:'visibility',t:[0,208],v:['visible','hidden'],e:[[3,1],[3,1]],fill:[2,'hidden']},{p:'opacity',t:[167,208],v:[1,0],e:[[0],[0]]},{p:'d',t:[83,208],v:["path('M.9,32.3L26.8,.1L185.1,.1L211.6,32.3Z')","path('M.9,.3L26.8,.1L185.1,.1L211.6,.3Z')"],e:[[1,0,0,.6,1],[0]]}],
"#Lid-3",[{p:'visibility',t:[0,1250],v:['visible','hidden'],e:[[3,1],[3,1]],fill:[2,'hidden']},{p:'opacity',t:[167,208,1208,1250],v:[0,1,1,0],e:[[0],[0],[0],[0]]},{p:'d',t:[208,708,1250],v:["path('M.9,.3L26.8,.1L185.1,.1L211.6,.3Z')","path('M1.3,-162.6L26.8,.1L185.1,.1L212.3,-162.6Z')","path('M32.3,-133.6L26.8,.1L185.1,.1L182.3,-133.6Z')"],e:[[1,.4,0,1,1],[1,0,0,.6,1],[0]]}],
"#Lid-4",[{p:'opacity',t:[708,1250],v:[0,1],e:[[0],[0]]},{p:'d',t:[208,708,1250,2292],v:["path('M.9,.3L26.8,.1L185.1,.1L211.6,.3C211.6,.3,.9,.3,.9,.3Z')","path('M1.3,-162.6L26.8,.1L185.1,.1L212.3,-162.6C212.3,-162.6,1.3,-162.6,1.3,-162.6Z')","path('M32.3,-133.6L26.8,.1L185.1,.1L182.3,-133.6C182.3,-133.6,32.3,-133.6,32.3,-133.6Z')","path('M-8.5,46L6.3,124.4L206.3,124.4L221.3,46C221.3,46,-8.5,46,-8.5,46Z')"],e:[[1,.4,0,1,1],[1,0,0,.6,1],[1,.4,0,1,1],[0]]}],
"#UKHomeOfficeIcon",[{p:'mpath',t:[1250,2292],v:['0%','100%'],e:[[1,.4,0,1,1],[0]],mp:"M105.4,187.8L105.4,324.3"},{p:'scaleX',t:[1250,2292],v:[1,1],e:[[1,.4,0,1,1],[0]]},{p:'scaleY',t:[1250,2292],v:[1,0],e:[[1,.4,0,1,1],[0]]}],
{autoremove:false,markers:{"1":{time: 0},"2":{time: 42},"3":{time:2230}}}).range(0,2500);
if(document.location.search.substr(1).split('&').indexOf('global=paused')>=0)ks.globalPause();})(KeyshapeJS);
]]></script>


</svg>
