<svg xmlns="http://www.w3.org/2000/svg" xmlns:xlink="http://www.w3.org/1999/xlink" viewBox="0 0 844 844" height="844" width="844" style="background: rgba(27,16,35,0.00); white-space: pre;"><defs><symbol id="BaseNode" preserveAspectRatio="none" width="8" height="8" viewBox="0 0 8 8" overflow="visible"><ellipse rx="4" ry="4" fill="#a995d0" transform="translate(4,4)"/></symbol><linearGradient id="Gradient-0" x1="121.9" y1="201.6" x2="121.9" y2="332" gradientUnits="userSpaceOnUse"><stop offset="0" stop-color="#3e2754"/><stop offset="1" stop-color="#1c1125" stop-opacity="0"/></linearGradient><linearGradient id="Gradient-1" x1="0" y1="0" x2="1" y2="0" gradientUnits="userSpaceOnUse" gradientTransform="matrix(1 0 -48.2 0 100.5 98.4)"><stop offset="0" stop-color="#2d0c4b"/><stop offset="1" stop-color="#30253c"/></linearGradient><linearGradient id="Gradient-2" x1="0" y1="0" x2="1" y2="0" gradientUnits="userSpaceOnUse" gradientTransform="matrix(2.3 65.8 1.8 -0.1 106.5 146.6)"><stop offset="0" stop-color="#230042"/><stop offset="1" stop-color="#32164b"/></linearGradient><linearGradient id="Gradient-3" x1="31.9" y1="11.7" x2="31.9" y2="236.6" gradientUnits="userSpaceOnUse"><stop offset="0" stop-color="#5a4969"/><stop offset="1" stop-color="#43265a"/></linearGradient><linearGradient id="Gradient-4" x1="31.9" y1="11.7" x2="31.9" y2="236.6" gradientUnits="userSpaceOnUse"><stop offset="0" stop-color="#745e87"/><stop offset="1" stop-color="#291737"/></linearGradient><linearGradient id="Gradient-5" x1="0" y1="0" x2="1" y2="0" gradientUnits="userSpaceOnUse" gradientTransform="matrix(74.7 158.4 -158.4 74.7 34.4 44.8)"><stop offset="0" stop-color="#43265a"/><stop offset="1" stop-color="#615071"/></linearGradient><radialGradient id="Gradient-6" cx=".8" cy="8.4" r="1" fx=".8" fy="8.4" gradientUnits="userSpaceOnUse" gradientTransform="matrix(-59.2 0 0 -19.1 106.3 179.3)"><stop offset="0" stop-color="#1b0032" stop-opacity=".37"/><stop offset=".6" stop-color="#1b0032" stop-opacity=".3"/><stop offset="1" stop-color="#1b0032" stop-opacity="0"/></radialGradient><radialGradient id="Gradient-7" cx="0" cy="0" r="12" fx="0" fy="0" gradientUnits="userSpaceOnUse"><stop offset="0" stop-color="#fe6159"/><stop offset="1" stop-color="#fe6159" stop-opacity="0"/></radialGradient><radialGradient id="Gradient-8" cx="-14.7" cy="9.3" r="1" fx="-14.7" fy="9.3" gradientUnits="userSpaceOnUse" gradientTransform="matrix(4.4 6.3 -6.3 4.4 121.8 50)"><stop offset="0" stop-color="#ffcfcf"/><stop offset=".3" stop-color="#fe827b"/><stop offset=".5" stop-color="#fe6359"/><stop offset=".7" stop-color="#d74762"/><stop offset="1" stop-color="#70007a"/></radialGradient><radialGradient id="Gradient-9" cx="0" cy="0" r="1" fx="0" fy="0" gradientUnits="userSpaceOnUse" gradientTransform="matrix(-285.3 0 0 -43.5 106.5 -10.4)"><stop offset="0" stop-color="#ab99bd"/><stop offset="1" stop-color="#614f72"/></radialGradient><radialGradient id="Gradient-10" cx="0" cy="0" r="12" fx="0" fy="0" gradientUnits="userSpaceOnUse"><stop offset="0" stop-color="#6b81ff"/><stop offset="1" stop-color="#6b81ff" stop-opacity="0"/></radialGradient><radialGradient id="Gradient-11" cx="-1.5" cy="-2.1" r="7.2" fx="-1.5" fy="-2.1" gradientUnits="userSpaceOnUse"><stop offset="0" stop-color="#aab7ff"/><stop offset=".3" stop-color="#7d91ff"/><stop offset=".5" stop-color="#6b81ff"/><stop offset=".7" stop-color="#5a5dd1"/><stop offset="1" stop-color="#2f0059"/></radialGradient></defs><g id="Everything" transform="translate(397,439.9) translate(0,0) translate(-130.6,-242.2)"><g clip-rule="evenodd" fill-rule="evenodd" stroke-linejoin="round" stroke-miterlimit="2" transform="translate(167.8,166.3) translate(-118.1,-166.4)"><path id="Reflection-5" d="M144.3 154.7l79.1 47.1l-9.8 129.9h-192.6v.3l-11.2-160.6Z" fill="url(#Gradient-0)" fill-rule="nonzero" opacity=".8" transform="translate(116.6,243.3) translate(-116.6,-243.3)"/><image id="_a0" xlink:href="./ShadowDark.png" width="200" height="92" preserveAspectRatio="none" transform="translate(108.9,187.6) translate(0,0) rotate(-14) skewX(31) scale(.93,1.15) translate(-100,-46)"/><path id="Solid" d="M54 52.4l-53.9-40.7l144.2-10.9l91.8 25.8l-12.4 169.1l-160 40.9Z" fill="#34283e" transform="translate(118.1,118.7) translate(-118.1,-118.7)"/><path id="Back-2" d="M27 1l6.7 145.6h144.8l6.8-145.6h-158.3Z" fill="url(#Gradient-1)" opacity="0" transform="translate(106,73) translate(-106.2,-73.8)"/><path id="Bottom-2" d="M33.7 146.6h144.8l21.3 70.5l.3 1.1h-187.7l21.3-71.6Z" fill="url(#Gradient-2)" opacity="0" transform="translate(106,181.6) translate(-106.3,-182.4)"/><path id="Right-2" d="M185.3 1l26.5 32.1l-11.7 185.1l-21.6-71.6l6.8-145.6Z" fill="url(#Gradient-3)" opacity="0" transform="translate(194.9,108.8) translate(-195.2,-109.6)"/><path id="Left-2" d="M9.8 161.4l-9.7-149.7l57.4 34l6.2 190.9Z" fill="url(#Gradient-4)" fill-rule="nonzero" transform="translate(31.9,124.2) translate(-31.9,-124.2)"/><path id="Front-3" d="M63.7 236.6l-6.2-190.9l178.6-19.1l-12.4 169.1Z" fill="url(#Gradient-5)" fill-rule="nonzero" transform="translate(146.8,131.6) translate(-146.8,-131.6)"/><g id="Network-2" opacity="0" transform="translate(106,106.7) translate(-108.8,-107.5)"><rect width="118.4" height="38.2" fill="url(#Gradient-6)" transform="translate(106.3,179.3) translate(-59.2,-19.1)"/><g transform="translate(108.9,96.7) translate(-108.9,-96.7)"><g transform="translate(108.8,96.7) translate(-108.8,-96.7)"><path d="M64.4 52.3h88.8" fill="none" stroke="#a995d0" stroke-width="1.3px" transform="translate(108.8,52.3) translate(-108.8,-52.3)"/><path d="M79.2 37.5h59.2" fill="none" stroke="#a995d0" stroke-width="1.3px" transform="translate(108.8,37.5) translate(-108.8,-37.5)"/><path d="M94 22.7h29.6" fill="none" stroke="#a995d0" stroke-width="1.3px" transform="translate(108.8,22.7) translate(-108.8,-22.7)"/><path d="M49.6 67.1h118.4" fill="none" stroke="#a995d0" stroke-width="1.3px" transform="translate(108.8,67.1) translate(-108.8,-67.1)"/><path d="M34.8 81.9h148" fill="none" stroke="#a995d0" stroke-width="1.3px" transform="translate(108.8,81.9) translate(-108.8,-81.9)"/><path d="M49.6 96.7h118.4" fill="none" stroke="#a995d0" stroke-width="1.3px" transform="translate(108.8,96.7) translate(-108.8,-96.7)"/><path d="M34.8 111.5h148" fill="none" stroke="#a995d0" stroke-width="1.3px" transform="translate(108.8,111.5) translate(-108.8,-111.5)"/><path d="M49.6 126.3h118.4" fill="none" stroke="#a995d0" stroke-width="1.3px" transform="translate(108.8,126.3) translate(-108.8,-126.3)"/><path d="M64.4 141.1h88.8" fill="none" stroke="#a995d0" stroke-width="1.3px" transform="translate(108.8,141.1) translate(-108.8,-141.1)"/><path d="M79.2 155.9h59.2" fill="none" stroke="#a995d0" stroke-width="1.3px" transform="translate(108.8,155.9) translate(-108.8,-155.9)"/><path d="M94 170.7h29.6" fill="none" stroke="#a995d0" stroke-width="1.3px" transform="translate(108.8,170.7) translate(-108.8,-170.7)"/></g><g transform="translate(108.8,96.7) translate(-108.8,-96.7)"><path d="M34.8 81.9l59.2-59.2" fill="none" stroke="#a995d0" stroke-width="1.3px" transform="translate(64.4,52.3) translate(-64.4,-52.3)"/><path d="M34.8 111.5l88.8-88.8" fill="none" stroke="#a995d0" stroke-width="1.3px" transform="translate(79.2,67.1) translate(-79.2,-67.1)"/><path d="M49.6 126.3l88.8-88.8" fill="none" stroke="#a995d0" stroke-width="1.3px" transform="translate(94,81.9) translate(-94,-81.9)"/><path d="M64.4 141.1l88.8-88.8" fill="none" stroke="#a995d0" stroke-width="1.3px" transform="translate(108.8,96.7) translate(-108.8,-96.7)"/><path d="M79.2 155.9l88.8-88.8" fill="none" stroke="#a995d0" stroke-width="1.3px" transform="translate(123.6,111.5) translate(-123.6,-111.5)"/><path d="M94 170.7l88.8-88.8" fill="none" stroke="#a995d0" stroke-width="1.3px" transform="translate(138.4,126.3) translate(-138.4,-126.3)"/><path d="M123.6 170.7l59.2-59.2" fill="none" stroke="#a995d0" stroke-width="1.3px" transform="translate(153.2,141.1) translate(-153.2,-141.1)"/></g><g transform="translate(108.8,96.7) translate(-108.8,-96.7)"><path d="M123.6 22.7l59.2 59.2" fill="none" stroke="#a995d0" stroke-width="1.3px" transform="translate(153.2,52.3) translate(-153.2,-52.3)"/><path d="M94 22.7l88.8 88.8" fill="none" stroke="#a995d0" stroke-width="1.3px" transform="translate(138.4,67.1) translate(-138.4,-67.1)"/><path d="M79.2 37.5l88.8 88.8" fill="none" stroke="#a995d0" stroke-width="1.3px" transform="translate(123.6,81.9) translate(-123.6,-81.9)"/><path d="M64.4 52.3l88.8 88.8" fill="none" stroke="#a995d0" stroke-width="1.3px" transform="translate(108.8,96.7) translate(-108.8,-96.7)"/><path d="M49.6 67.1l88.8 88.8" fill="none" stroke="#a995d0" stroke-width="1.3px" transform="translate(94,111.5) translate(-94,-111.5)"/><path d="M34.8 81.9l88.8 88.8" fill="none" stroke="#a995d0" stroke-width="1.3px" transform="translate(79.2,126.3) translate(-79.2,-126.3)"/><path d="M34.8 111.5l59.2 59.2" fill="none" stroke="#a995d0" stroke-width="1.3px" transform="translate(64.4,141.1) translate(-64.4,-141.1)"/></g><g transform="translate(108.9,96.7) translate(-108.9,-96.7)"><path d="M34.8 81.9v29.6" fill="none" stroke="#a995d0" stroke-width="1.3px" transform="translate(34.8,96.7) translate(-34.8,-96.7)"/><path d="M49.6 67.1v59.2" fill="none" stroke="#a995d0" stroke-width="1.3px" transform="translate(49.6,96.7) translate(-49.6,-96.7)"/><path d="M64.3 52.3l.1 88.8" fill="none" stroke="#a995d0" stroke-width="1.3px" transform="translate(64.4,96.7) translate(-64.4,-96.7)"/><path d="M79.2 37.5v118.4" fill="none" stroke="#a995d0" stroke-width="1.3px" transform="translate(79.2,96.7) translate(-79.2,-96.7)"/><path d="M94 22.7v148" fill="none" stroke="#a995d0" stroke-width="1.3px" transform="translate(94,96.7) translate(-94,-96.7)"/><path d="M108.8 37.5v118.4" fill="none" stroke="#a995d0" stroke-width="1.3px" transform="translate(108.8,96.7) translate(-108.8,-96.7)"/><path d="M123.6 22.7v148" fill="none" stroke="#a995d0" stroke-width="1.3px" transform="translate(123.6,96.7) translate(-123.6,-96.7)"/><path d="M138.4 37.5v118.4" fill="none" stroke="#a995d0" stroke-width="1.3px" transform="translate(138.4,96.7) translate(-138.4,-96.7)"/><path d="M153.3 52.3l-0.1 88.8" fill="none" stroke="#a995d0" stroke-width="1.3px" transform="translate(153.3,96.7) translate(-153.3,-96.7)"/><path d="M168.2 67.1l-0.1 59.2" fill="none" stroke="#a995d0" stroke-width="1.3px" transform="translate(168.1,96.7) translate(-168.1,-96.7)"/><path d="M182.9 81.9v29.6" fill="none" stroke="#a995d0" stroke-width="1.3px" transform="translate(182.9,96.7) translate(-182.9,-96.7)"/></g></g><g transform="translate(108.8,97.7) translate(-108.8,-97.7)"><use width="8" height="8" xlink:href="#BaseNode" transform="translate(94,22.7) translate(-4,-4)"/><use width="8" height="8" xlink:href="#BaseNode" transform="translate(123.6,22.7) translate(-4,-4)"/><use width="8" height="8" xlink:href="#BaseNode" transform="translate(79.2,37.1) translate(-4,-4)"/><use width="8" height="8" xlink:href="#BaseNode" transform="translate(108.8,37.1) translate(-4,-4)"/><use width="8" height="8" xlink:href="#BaseNode" transform="translate(138.4,37.1) translate(-4,-4)"/><use width="8" height="8" xlink:href="#BaseNode" transform="translate(64.3,52.3) translate(-4,-4)"/><use width="8" height="8" xlink:href="#BaseNode" transform="translate(94,52.3) translate(-4,-4)"/><use width="8" height="8" xlink:href="#BaseNode" transform="translate(123.6,52.3) translate(-4,-4)"/><use width="8" height="8" xlink:href="#BaseNode" transform="translate(153.2,52.3) translate(-4,-4)"/><use width="8" height="8" xlink:href="#BaseNode" transform="translate(49.6,67.1) translate(-4,-4)"/><use width="8" height="8" xlink:href="#BaseNode" transform="translate(79.2,67.1) translate(-4,-4)"/><use width="8" height="8" xlink:href="#BaseNode" transform="translate(108.8,67.1) translate(-4,-4)"/><use width="8" height="8" xlink:href="#BaseNode" transform="translate(138.4,67.1) translate(-4,-4)"/><use width="8" height="8" xlink:href="#BaseNode" transform="translate(168.2,67.1) translate(-4,-4)"/><use width="8" height="8" xlink:href="#BaseNode" transform="translate(34.8,81.9) translate(-4,-4)"/><use width="8" height="8" xlink:href="#BaseNode" transform="translate(64.3,81.9) translate(-4,-4)"/><use width="8" height="8" xlink:href="#BaseNode" transform="translate(94,81.9) translate(-4,-4)"/><use width="8" height="8" xlink:href="#BaseNode" transform="translate(123.6,81.9) translate(-4,-4)"/><use width="8" height="8" xlink:href="#BaseNode" transform="translate(153.2,81.9) translate(-4,-4)"/><use width="8" height="8" xlink:href="#BaseNode" transform="translate(182.9,81.9) translate(-4,-4)"/><use width="8" height="8" xlink:href="#BaseNode" transform="translate(49.6,96.7) translate(-4,-4)"/><use width="8" height="8" xlink:href="#BaseNode" transform="translate(79.2,96.7) translate(-4,-4)"/><use width="8" height="8" xlink:href="#BaseNode" transform="translate(108.8,96.7) translate(-4,-4)"/><use width="8" height="8" xlink:href="#BaseNode" transform="translate(138.4,96.7) translate(-4,-4)"/><use width="8" height="8" xlink:href="#BaseNode" transform="translate(168,96.7) translate(-4,-4)"/><use width="8" height="8" xlink:href="#BaseNode" transform="translate(34.8,111.5) translate(-4,-4)"/><use width="8" height="8" xlink:href="#BaseNode" transform="translate(64.3,111.5) translate(-4,-4)"/><use width="8" height="8" xlink:href="#BaseNode" transform="translate(94,111.5) translate(-4,-4)"/><use width="8" height="8" xlink:href="#BaseNode" transform="translate(123.6,111.5) translate(-4,-4)"/><use width="8" height="8" xlink:href="#BaseNode" transform="translate(153.2,111.5) translate(-4,-4)"/><use width="8" height="8" xlink:href="#BaseNode" transform="translate(182.9,111.5) translate(-4,-4)"/><use width="8" height="8" xlink:href="#BaseNode" transform="translate(49.6,126.3) translate(-4,-4)"/><use width="8" height="8" xlink:href="#BaseNode" transform="translate(79.2,126.3) translate(-4,-4)"/><use width="8" height="8" xlink:href="#BaseNode" transform="translate(108.8,126.3) translate(-4,-4)"/><use width="8" height="8" xlink:href="#BaseNode" transform="translate(138.4,126.3) translate(-4,-4)"/><use width="8" height="8" xlink:href="#BaseNode" transform="translate(168,126.3) translate(-4,-4)"/><use width="8" height="8" xlink:href="#BaseNode" transform="translate(64.4,141.1) translate(-4,-4)"/><use width="8" height="8" xlink:href="#BaseNode" transform="translate(94,141.1) translate(-4,-4)"/><use width="8" height="8" xlink:href="#BaseNode" transform="translate(123.6,141.1) translate(-4,-4)"/><use width="8" height="8" xlink:href="#BaseNode" transform="translate(153.2,141.1) translate(-4,-4)"/><use width="8" height="8" xlink:href="#BaseNode" transform="translate(79.2,155.9) translate(-4,-4)"/><use width="8" height="8" xlink:href="#BaseNode" transform="translate(108.8,155.9) translate(-4,-4)"/><use width="8" height="8" xlink:href="#BaseNode" transform="translate(138.4,155.9) translate(-4,-4)"/><use width="8" height="8" xlink:href="#BaseNode" transform="translate(94,170.7) translate(-4,-4)"/><use width="8" height="8" xlink:href="#BaseNode" transform="translate(123.6,170.7) translate(-4,-4)"/></g><g transform="translate(97,96.7) translate(-32.6,-80)"><path id="Line-2" d="M94 22.7l29.6 29.6l-14.8 14.8l14.8 14.8l-59.2 59.2l29.6 29.6" fill="none" stroke="#ff645c" stroke-width="3px" stroke-dasharray="210" stroke-dashoffset="210" transform="translate(29.6,80) translate(-94,-96.7)"/><g transform="translate(29.6,6) translate(-6,-6)"><ellipse id="glow-3" rx="12" ry="12" fill="url(#Gradient-7)" transform="translate(6,6) scale(0,0)"/><ellipse id="_a1" rx="6" ry="6" fill="url(#Gradient-8)" transform="translate(6,6) scale(0,0)"/></g><g transform="translate(44.5,20.8) translate(-6,-6)"><ellipse id="glow-4" rx="12" ry="12" fill="url(#Gradient-7)" transform="translate(6,6) scale(0,0)"/><ellipse id="_a2" rx="6" ry="6" fill="url(#Gradient-8)" transform="translate(6,6) scale(0,0)"/></g><g transform="translate(59.2,35.6) translate(-6,-6)"><ellipse id="glow-5" rx="12" ry="12" fill="url(#Gradient-7)" transform="translate(6,6) scale(0,0)"/><ellipse id="_a3" rx="6" ry="6" fill="url(#Gradient-8)" transform="translate(6,6) scale(0,0)"/></g><g transform="translate(44.4,50.4) translate(-6,-6)"><ellipse id="glow-6" rx="12" ry="12" fill="url(#Gradient-7)" transform="translate(6,6) scale(0,0)"/><ellipse id="_a4" rx="6" ry="6" fill="url(#Gradient-8)" transform="translate(6,6) scale(0,0)"/></g><g transform="translate(59.2,65.2) translate(-6,-6)"><ellipse id="glow-7" rx="12" ry="12" fill="url(#Gradient-7)" transform="translate(6,6) scale(0,0)"/><ellipse id="_a5" rx="6" ry="6" fill="url(#Gradient-8)" transform="translate(6,6) scale(0,0)"/></g><g transform="translate(44.5,80) translate(-6,-6)"><ellipse id="glow-8" rx="12" ry="12" fill="url(#Gradient-7)" transform="translate(6,6) scale(0,0)"/><ellipse id="_a6" rx="6" ry="6" fill="url(#Gradient-8)" transform="translate(6,6) scale(0,0)"/></g><g transform="translate(29.6,94.8) translate(-6,-6)"><ellipse id="glow-9" rx="12" ry="12" fill="url(#Gradient-7)" transform="translate(6,6) scale(0,0)"/><ellipse id="_a7" rx="6" ry="6" fill="url(#Gradient-8)" transform="translate(6,6) scale(0,0)"/></g><g transform="translate(14.8,109.6) translate(-6,-6)"><ellipse id="glow-10" rx="12" ry="12" fill="url(#Gradient-7)" transform="translate(6,6) scale(0,0)"/><ellipse id="_a8" rx="6" ry="6" fill="url(#Gradient-8)" transform="translate(6,6) scale(0,0)"/></g><g transform="translate(-0.1,124.4) translate(-6,-6)"><ellipse id="glow-11" rx="12" ry="12" fill="url(#Gradient-7)" transform="translate(6,6) scale(0,0)"/><ellipse id="_a9" rx="6" ry="6" fill="url(#Gradient-8)" transform="translate(6,6) scale(0,0)"/></g><g transform="translate(14.8,139.2) translate(-6,-6)"><ellipse id="glow-12" rx="12" ry="12" fill="url(#Gradient-7)" transform="translate(6,6) scale(0,0)"/><ellipse id="_a10" rx="6" ry="6" fill="url(#Gradient-8)" transform="translate(6,6) scale(0,0)"/></g><g id="_a11" transform="translate(29.6,154.1) translate(-6,-6)"><ellipse id="glow-13" rx="12" ry="12" fill="url(#Gradient-7)" transform="translate(6,6) scale(0,0)"/><ellipse id="_a12" rx="6" ry="6" fill="url(#Gradient-8)" transform="translate(6,6) scale(0,0)"/></g></g></g><path id="Top-2" d="M57.5 45.7l-57.4-34l144.2-10.9l91.8 25.8Z" fill="url(#Gradient-9)" fill-rule="nonzero" transform="translate(118.1,23.2) translate(-118.1,-23.2)"/><path id="_a13" fill="#c5b8df" opacity="0" d="M-73.7-9.8h-3.7v9.8h2.3v-3.4l1.3-0.1l1.4 3.5h2.5l-1.8-3.8c.9-0.5 1.5-1.4 1.5-2.8c0-2.2-1.5-3.2-3.5-3.2Zm-1.4 1.9h1.3c.9 0 1.3 .5 1.3 1.2c0 .8-0.5 1.3-1.3 1.3h-1.3Zm6.6-1.9v9.8h6.2v-2h-3.9v-2.1h3.5v-1.9h-3.5v-1.9h3.6l.3-1.9Zm10.4 0l-3.2 9.8h2.4l.6-2h3.2l.6 2h2.4l-3.2-9.8Zm1.3 3.1h.2l.9 2.9h-2Zm6.1-3.1v9.8h5.7v-2h-3.4v-7.8Zm5.6 5.1v1.9h3.5v-1.9Zm3.7-5.1l2.4 9.8h2.7l1.5-5.9l1.4 5.9h2.7l2.4-9.8h-2.4l-1.4 7.2h-0.1l-1.5-7.2h-2.2l-1.5 7.2h-0.1l-1.4-7.2Zm18.2-0.1c-2.4 0-4.5 1.5-4.5 5c0 2.8 1.5 5 4.5 5c3 0 4.5-2.2 4.5-5c0-3.5-2.1-5-4.5-5Zm0 1.9c1.2 0 2.2 .9 2.2 3.1c0 1.6-0.6 3-2.2 3c-1.6 0-2.2-1.4-2.2-3c0-2.2 1-3.1 2.2-3.1Zm9.9-1.8h-3.8v9.8h2.3v-3.4l1.3-0.1l1.5 3.5h2.5l-1.9-3.8c1-0.5 1.5-1.4 1.6-2.8c0-2.2-1.6-3.2-3.5-3.2Zm-1.5 1.9h1.4c.9 0 1.3 .5 1.3 1.2c0 .8-0.6 1.3-1.3 1.3h-1.4Zm6.6-1.9v9.8h5.8v-2h-3.4v-7.8Zm10.6 0h-3.5v9.8h3.3c2.8 0 4.8-1.6 4.8-5.2c0-3.2-1.9-4.6-4.6-4.6Zm-1.2 1.9h1.1c1.7 0 2.4 .9 2.4 2.8c0 1.8-0.6 3.1-2.5 3.1h-1Zm14.8-2c-2.4 0-4.5 1.5-4.5 5c0 2.8 1.6 5 4.5 5c3 0 4.5-2.2 4.5-5c0-3.5-2.1-5-4.5-5Zm0 1.9c1.2 0 2.2 .9 2.2 3.1c0 1.6-0.6 3-2.2 3c-1.6 0-2.2-1.4-2.2-3c0-2.2 1.1-3.1 2.2-3.1Zm6.1-1.8v6.2c0 2.6 1.9 3.7 3.9 3.7c2.1 0 3.9-1.1 3.9-3.7v-6.2h-2.3v6.1c0 1.2-0.6 1.8-1.6 1.8c-0.9 0-1.6-0.6-1.6-1.8v-6.1Zm9.1 0v1.9h2.6v7.9h2.3v-7.9h2.3l.2-1.9Zm14.5 3.6l2-0.8c-0.4-1.6-1.9-2.9-4.1-2.9c-2.4 0-4.5 1.5-4.5 5c0 3.1 1.6 5 4.5 5c2 0 3.5-1.2 4-2.7l-1.9-0.8c-0.3 1-1.1 1.6-2.1 1.6c-1.5 0-2.2-1.5-2.2-3.2c0-2.1 1-3 2.2-3c1.2 0 1.9 .9 2.1 1.8Zm7.7-3.7c-2.4 0-4.5 1.5-4.5 5c0 2.8 1.6 5 4.5 5c3 0 4.5-2.2 4.5-5c0-3.5-2.1-5-4.5-5Zm0 1.9c1.2 0 2.2 .9 2.2 3.1c0 1.6-0.6 3-2.2 3c-1.6 0-2.2-1.4-2.2-3c0-2.2 1.1-3.1 2.2-3.1Zm6.2-1.8v9.8h2.1v-6.3l2.1 6.3h1.6l2.2-6.3v6.3h2.1v-9.8h-2.7l-2.3 6.7l-2.4-6.7Zm11.9 0v9.8h6.3v-2h-4v-2.1h3.6v-1.9h-3.6v-1.9h3.7l.3-1.9Z" fill-rule="nonzero" transform="translate(188.1,238.5) translate(-78.1,4.9)"/><path id="_a14" fill="#ff645c" opacity="0" d="M-25.2-9.8h-3.8v9.8h2.3v-3.4l1.3-0.1l1.5 3.5h2.5l-1.9-3.8c.9-0.5 1.5-1.4 1.5-2.8c0-2.2-1.5-3.2-3.4-3.2Zm-1.5 1.9h1.4c.8 0 1.3 .5 1.3 1.2c0 .8-0.6 1.3-1.3 1.3h-1.4Zm6.6-1.9v9.8h6.3v-2h-4v-2.1h3.6v-1.9h-3.6v-1.9h3.7l.2-1.9Zm7.7 0v9.8h2.3v-3.8h3.7l.1-2h-3.8v-2.1h3.8l.3-1.9Zm7.8 0v6.2c0 2.6 1.8 3.7 3.9 3.7c2 0 3.9-1.1 3.9-3.7v-6.2h-2.3v6.1c0 1.2-0.7 1.8-1.6 1.8c-0.9 0-1.6-0.6-1.6-1.8v-6.1Zm15.3 2.6l.9-1.7c-0.8-0.5-2.1-1-3.6-1c-1.9 0-3.4 .9-3.4 2.8c0 3.2 4.8 2.7 4.8 4.3c0 .6-0.5 .9-1.4 .9c-1.4 0-2.2-0.5-2.8-1l-1 1.8c0 0 1.4 1.2 3.9 1.2c2 0 3.6-1 3.6-3.2c0-3.3-4.9-2.6-4.8-4.1c0-0.5 .4-0.8 1.1-0.8c.9 0 1.9 .3 2.7 .8Zm2.5-2.6v9.8h6.2v-2h-3.9v-2.1h3.6v-1.9h-3.6v-1.9h3.7l.2-1.9Zm11.4 0h-3.6v9.8h3.4c2.7 0 4.8-1.6 4.8-5.2c0-3.2-2-4.6-4.6-4.6Zm-1.2 1.9h1.1c1.6 0 2.4 .9 2.4 2.8c0 1.8-0.6 3.1-2.5 3.1h-1Z" fill-rule="nonzero" transform="translate(109.9,197.5) translate(0,0) translate(0,4.9)"/></g><g transform="translate(154.6,384.8) translate(-143.7,-99.7)"><g id="NearbyWorld1" clip-rule="evenodd" fill-rule="evenodd" stroke-linejoin="round" stroke-miterlimit="2" opacity="0" transform="translate(144.9,-119) translate(0,0) translate(-106.1,-166.2)"><path id="Reflection-3" d="M144.3 154.7l79.1 47.1l-9.8 129.9h-192.6v.3l-11.2-160.6Z" fill="url(#Gradient-0)" fill-rule="nonzero" opacity=".8" transform="translate(116.6,243.3) translate(-116.6,-243.3)"/><image id="_a15" xlink:href="./ShadowDark.png" width="195.9" height="92" preserveAspectRatio="none" transform="translate(108.9,187.6) translate(0,0) rotate(-13) skewX(32) scale(.93,1.15) translate(-95.9,-46)"/><path d="M130.6 .5l1.5 102.4h-103.9l-12.2-102.4h114.6Z" fill="url(#Gradient-1)" opacity=".5" transform="translate(112.5,57.2) scale(1.53846,1.53846) translate(-74.1,-51.7)"/><path d="M132.1 102.9h-103.9l-14.1 52.1h115.6l2.4-52.1Z" fill="url(#Gradient-0)" opacity=".8" transform="translate(111,176.1) scale(1.53846,1.53846) translate(-73.1,-129)"/><path d="M16 .5l-15.5 40.5l13.6 114l14.1-52.1l-12.2-102.4Z" fill="url(#Gradient-3)" opacity=".5" transform="translate(20.7,97.3) scale(1.53846,1.53846) translate(-14.4,-77.8)"/><path id="Left-3" d="M127.2 41l3.4-40.5l1.5 102.4l-2.4 52.1l-2.5-114Z" fill="url(#Gradient-3)" opacity=".5" transform="translate(198,97.4) scale(1.53846,1.53846) translate(-129.7,-77.8)"/><path id="Front-2" d="M127.2 41h-126.7l13.6 114h115.6l-2.5-114Z" fill="url(#Gradient-5)" opacity=".5" transform="translate(98.7,128.5) scale(1.53846,1.53846) translate(-65.1,-98)"/><g id="Network-3" opacity="0" transform="translate(106,106.7) translate(-108.8,-107.5)"><rect width="118.4" height="38.2" fill="url(#Gradient-6)" transform="translate(106.3,179.3) translate(-59.2,-19.1)"/><g transform="translate(108.9,96.7) translate(-108.9,-96.7)"><g transform="translate(108.8,96.7) translate(-108.8,-96.7)"><path d="M64.4 52.3h88.8" fill="none" stroke="#a995d0" stroke-width="1.3px" transform="translate(108.8,52.3) translate(-108.8,-52.3)"/><path d="M79.2 37.5h59.2" fill="none" stroke="#a995d0" stroke-width="1.3px" transform="translate(108.8,37.5) translate(-108.8,-37.5)"/><path d="M94 22.7h29.6" fill="none" stroke="#a995d0" stroke-width="1.3px" transform="translate(108.8,22.7) translate(-108.8,-22.7)"/><path d="M49.6 67.1h118.4" fill="none" stroke="#a995d0" stroke-width="1.3px" transform="translate(108.8,67.1) translate(-108.8,-67.1)"/><path d="M34.8 81.9h148" fill="none" stroke="#a995d0" stroke-width="1.3px" transform="translate(108.8,81.9) translate(-108.8,-81.9)"/><path d="M49.6 96.7h118.4" fill="none" stroke="#a995d0" stroke-width="1.3px" transform="translate(108.8,96.7) translate(-108.8,-96.7)"/><path d="M34.8 111.5h148" fill="none" stroke="#a995d0" stroke-width="1.3px" transform="translate(108.8,111.5) translate(-108.8,-111.5)"/><path d="M49.6 126.3h118.4" fill="none" stroke="#a995d0" stroke-width="1.3px" transform="translate(108.8,126.3) translate(-108.8,-126.3)"/><path d="M64.4 141.1h88.8" fill="none" stroke="#a995d0" stroke-width="1.3px" transform="translate(108.8,141.1) translate(-108.8,-141.1)"/><path d="M79.2 155.9h59.2" fill="none" stroke="#a995d0" stroke-width="1.3px" transform="translate(108.8,155.9) translate(-108.8,-155.9)"/><path d="M94 170.7h29.6" fill="none" stroke="#a995d0" stroke-width="1.3px" transform="translate(108.8,170.7) translate(-108.8,-170.7)"/></g><g transform="translate(108.8,96.7) translate(-108.8,-96.7)"><path d="M34.8 81.9l59.2-59.2" fill="none" stroke="#a995d0" stroke-width="1.3px" transform="translate(64.4,52.3) translate(-64.4,-52.3)"/><path d="M34.8 111.5l88.8-88.8" fill="none" stroke="#a995d0" stroke-width="1.3px" transform="translate(79.2,67.1) translate(-79.2,-67.1)"/><path d="M49.6 126.3l88.8-88.8" fill="none" stroke="#a995d0" stroke-width="1.3px" transform="translate(94,81.9) translate(-94,-81.9)"/><path d="M64.4 141.1l88.8-88.8" fill="none" stroke="#a995d0" stroke-width="1.3px" transform="translate(108.8,96.7) translate(-108.8,-96.7)"/><path d="M79.2 155.9l88.8-88.8" fill="none" stroke="#a995d0" stroke-width="1.3px" transform="translate(123.6,111.5) translate(-123.6,-111.5)"/><path d="M94 170.7l88.8-88.8" fill="none" stroke="#a995d0" stroke-width="1.3px" transform="translate(138.4,126.3) translate(-138.4,-126.3)"/><path d="M123.6 170.7l59.2-59.2" fill="none" stroke="#a995d0" stroke-width="1.3px" transform="translate(153.2,141.1) translate(-153.2,-141.1)"/></g><g transform="translate(108.8,96.7) translate(-108.8,-96.7)"><path d="M123.6 22.7l59.2 59.2" fill="none" stroke="#a995d0" stroke-width="1.3px" transform="translate(153.2,52.3) translate(-153.2,-52.3)"/><path d="M94 22.7l88.8 88.8" fill="none" stroke="#a995d0" stroke-width="1.3px" transform="translate(138.4,67.1) translate(-138.4,-67.1)"/><path d="M79.2 37.5l88.8 88.8" fill="none" stroke="#a995d0" stroke-width="1.3px" transform="translate(123.6,81.9) translate(-123.6,-81.9)"/><path d="M64.4 52.3l88.8 88.8" fill="none" stroke="#a995d0" stroke-width="1.3px" transform="translate(108.8,96.7) translate(-108.8,-96.7)"/><path d="M49.6 67.1l88.8 88.8" fill="none" stroke="#a995d0" stroke-width="1.3px" transform="translate(94,111.5) translate(-94,-111.5)"/><path d="M34.8 81.9l88.8 88.8" fill="none" stroke="#a995d0" stroke-width="1.3px" transform="translate(79.2,126.3) translate(-79.2,-126.3)"/><path d="M34.8 111.5l59.2 59.2" fill="none" stroke="#a995d0" stroke-width="1.3px" transform="translate(64.4,141.1) translate(-64.4,-141.1)"/></g><g transform="translate(108.9,96.7) translate(-108.9,-96.7)"><path d="M34.8 81.9v29.6" fill="none" stroke="#a995d0" stroke-width="1.3px" transform="translate(34.8,96.7) translate(-34.8,-96.7)"/><path d="M49.6 67.1v59.2" fill="none" stroke="#a995d0" stroke-width="1.3px" transform="translate(49.6,96.7) translate(-49.6,-96.7)"/><path d="M64.3 52.3l.1 88.8" fill="none" stroke="#a995d0" stroke-width="1.3px" transform="translate(64.4,96.7) translate(-64.4,-96.7)"/><path d="M79.2 37.5v118.4" fill="none" stroke="#a995d0" stroke-width="1.3px" transform="translate(79.2,96.7) translate(-79.2,-96.7)"/><path d="M94 22.7v148" fill="none" stroke="#a995d0" stroke-width="1.3px" transform="translate(94,96.7) translate(-94,-96.7)"/><path d="M108.8 37.5v118.4" fill="none" stroke="#a995d0" stroke-width="1.3px" transform="translate(108.8,96.7) translate(-108.8,-96.7)"/><path d="M123.6 22.7v148" fill="none" stroke="#a995d0" stroke-width="1.3px" transform="translate(123.6,96.7) translate(-123.6,-96.7)"/><path d="M138.4 37.5v118.4" fill="none" stroke="#a995d0" stroke-width="1.3px" transform="translate(138.4,96.7) translate(-138.4,-96.7)"/><path d="M153.3 52.3l-0.1 88.8" fill="none" stroke="#a995d0" stroke-width="1.3px" transform="translate(153.3,96.7) translate(-153.3,-96.7)"/><path d="M168.2 67.1l-0.1 59.2" fill="none" stroke="#a995d0" stroke-width="1.3px" transform="translate(168.1,96.7) translate(-168.1,-96.7)"/><path d="M182.9 81.9v29.6" fill="none" stroke="#a995d0" stroke-width="1.3px" transform="translate(182.9,96.7) translate(-182.9,-96.7)"/></g></g><g transform="translate(108.8,97.7) translate(-108.8,-97.7)"><use width="8" height="8" xlink:href="#BaseNode" transform="translate(94,22.7) translate(-4,-4)"/><use width="8" height="8" xlink:href="#BaseNode" transform="translate(123.6,22.7) translate(-4,-4)"/><use width="8" height="8" xlink:href="#BaseNode" transform="translate(79.2,37.1) translate(-4,-4)"/><use width="8" height="8" xlink:href="#BaseNode" transform="translate(108.8,37.1) translate(-4,-4)"/><use width="8" height="8" xlink:href="#BaseNode" transform="translate(138.4,37.1) translate(-4,-4)"/><use width="8" height="8" xlink:href="#BaseNode" transform="translate(64.3,52.3) translate(-4,-4)"/><use width="8" height="8" xlink:href="#BaseNode" transform="translate(94,52.3) translate(-4,-4)"/><use width="8" height="8" xlink:href="#BaseNode" transform="translate(123.6,52.3) translate(-4,-4)"/><use width="8" height="8" xlink:href="#BaseNode" transform="translate(153.2,52.3) translate(-4,-4)"/><use width="8" height="8" xlink:href="#BaseNode" transform="translate(49.6,67.1) translate(-4,-4)"/><use width="8" height="8" xlink:href="#BaseNode" transform="translate(79.2,67.1) translate(-4,-4)"/><use width="8" height="8" xlink:href="#BaseNode" transform="translate(108.8,67.1) translate(-4,-4)"/><use width="8" height="8" xlink:href="#BaseNode" transform="translate(138.4,67.1) translate(-4,-4)"/><use width="8" height="8" xlink:href="#BaseNode" transform="translate(168.2,67.1) translate(-4,-4)"/><use width="8" height="8" xlink:href="#BaseNode" transform="translate(34.8,81.9) translate(-4,-4)"/><use width="8" height="8" xlink:href="#BaseNode" transform="translate(64.3,81.9) translate(-4,-4)"/><use width="8" height="8" xlink:href="#BaseNode" transform="translate(94,81.9) translate(-4,-4)"/><use width="8" height="8" xlink:href="#BaseNode" transform="translate(123.6,81.9) translate(-4,-4)"/><use width="8" height="8" xlink:href="#BaseNode" transform="translate(153.2,81.9) translate(-4,-4)"/><use width="8" height="8" xlink:href="#BaseNode" transform="translate(182.9,81.9) translate(-4,-4)"/><use width="8" height="8" xlink:href="#BaseNode" transform="translate(49.6,96.7) translate(-4,-4)"/><use width="8" height="8" xlink:href="#BaseNode" transform="translate(79.2,96.7) translate(-4,-4)"/><use width="8" height="8" xlink:href="#BaseNode" transform="translate(108.8,96.7) translate(-4,-4)"/><use width="8" height="8" xlink:href="#BaseNode" transform="translate(138.4,96.7) translate(-4,-4)"/><use width="8" height="8" xlink:href="#BaseNode" transform="translate(168,96.7) translate(-4,-4)"/><use width="8" height="8" xlink:href="#BaseNode" transform="translate(34.8,111.5) translate(-4,-4)"/><use width="8" height="8" xlink:href="#BaseNode" transform="translate(64.3,111.5) translate(-4,-4)"/><use width="8" height="8" xlink:href="#BaseNode" transform="translate(94,111.5) translate(-4,-4)"/><use width="8" height="8" xlink:href="#BaseNode" transform="translate(123.6,111.5) translate(-4,-4)"/><use width="8" height="8" xlink:href="#BaseNode" transform="translate(153.2,111.5) translate(-4,-4)"/><use width="8" height="8" xlink:href="#BaseNode" transform="translate(182.9,111.5) translate(-4,-4)"/><use width="8" height="8" xlink:href="#BaseNode" transform="translate(49.6,126.3) translate(-4,-4)"/><use width="8" height="8" xlink:href="#BaseNode" transform="translate(79.2,126.3) translate(-4,-4)"/><use width="8" height="8" xlink:href="#BaseNode" transform="translate(108.8,126.3) translate(-4,-4)"/><use width="8" height="8" xlink:href="#BaseNode" transform="translate(138.4,126.3) translate(-4,-4)"/><use width="8" height="8" xlink:href="#BaseNode" transform="translate(168,126.3) translate(-4,-4)"/><use width="8" height="8" xlink:href="#BaseNode" transform="translate(64.4,141.1) translate(-4,-4)"/><use width="8" height="8" xlink:href="#BaseNode" transform="translate(94,141.1) translate(-4,-4)"/><use width="8" height="8" xlink:href="#BaseNode" transform="translate(123.6,141.1) translate(-4,-4)"/><use width="8" height="8" xlink:href="#BaseNode" transform="translate(153.2,141.1) translate(-4,-4)"/><use width="8" height="8" xlink:href="#BaseNode" transform="translate(79.2,155.9) translate(-4,-4)"/><use width="8" height="8" xlink:href="#BaseNode" transform="translate(108.8,155.9) translate(-4,-4)"/><use width="8" height="8" xlink:href="#BaseNode" transform="translate(138.4,155.9) translate(-4,-4)"/><use width="8" height="8" xlink:href="#BaseNode" transform="translate(94,170.7) translate(-4,-4)"/><use width="8" height="8" xlink:href="#BaseNode" transform="translate(123.6,170.7) translate(-4,-4)"/></g><g transform="translate(97,96.7) translate(-32.6,-80)"><path id="Line-3" d="M94 22.7l44.4 44.4l-14.7 14.9l29.7 29.3l-29.7 29.4v30" fill="none" stroke="#7085ff" stroke-width="4" stroke-dasharray="210" stroke-dashoffset="210" transform="translate(29.6,80) translate(-94,-96.7)"/><g transform="translate(29.6,6) translate(-6,-6)"><ellipse id="glow-14" rx="12" ry="12" fill="url(#Gradient-10)" transform="translate(6,6) scale(0,0)"/><ellipse id="_a16" rx="6" ry="6" fill="url(#Gradient-11)" transform="translate(6,6) scale(0,0)"/></g><g transform="translate(44.5,20.8) translate(-6,-6)"><ellipse id="glow-15" rx="12" ry="12" fill="url(#Gradient-10)" transform="translate(6,6) scale(0,0)"/><ellipse id="_a17" rx="6" ry="6" fill="url(#Gradient-11)" transform="translate(6,6) scale(0,0)"/></g><g transform="translate(59.2,35.6) translate(-6,-6)"><ellipse id="glow-16" rx="12" ry="12" fill="url(#Gradient-10)" transform="translate(6,6) scale(0,0)"/><ellipse id="_a18" rx="6" ry="6" fill="url(#Gradient-11)" transform="translate(6,6) scale(0,0)"/></g><g transform="translate(74,50.4) translate(-6,-6)"><ellipse id="glow-17" rx="12" ry="12" fill="url(#Gradient-10)" transform="translate(6,6) scale(0,0)"/><ellipse id="_a19" rx="6" ry="6" fill="url(#Gradient-11)" transform="translate(6,6) scale(0,0)"/></g><g transform="translate(59.2,65.2) translate(-6,-6)"><ellipse id="glow-18" rx="12" ry="12" fill="url(#Gradient-10)" transform="translate(6,6) scale(0,0)"/><ellipse id="_a20" rx="6" ry="6" fill="url(#Gradient-11)" transform="translate(6,6) scale(0,0)"/></g><g transform="translate(74,80) translate(-6,-6)"><ellipse id="glow-19" rx="12" ry="12" fill="url(#Gradient-10)" transform="translate(6,6) scale(0,0)"/><ellipse id="_a21" rx="6" ry="6" fill="url(#Gradient-11)" transform="translate(6,6) scale(0,0)"/></g><g transform="translate(88.9,94.8) translate(-6,-6)"><ellipse id="glow-20" rx="12" ry="12" fill="url(#Gradient-10)" transform="translate(6,6) scale(0,0)"/><ellipse id="_a22" rx="6" ry="6" fill="url(#Gradient-11)" transform="translate(6,6) scale(0,0)"/></g><g transform="translate(74,109.6) translate(-6,-6)"><ellipse id="glow-21" rx="12" ry="12" fill="url(#Gradient-10)" transform="translate(6,6) scale(0,0)"/><ellipse id="_a23" rx="6" ry="6" fill="url(#Gradient-11)" transform="translate(6,6) scale(0,0)"/></g><g transform="translate(59.2,124.4) translate(-6,-6)"><ellipse id="glow-22" rx="12" ry="12" fill="url(#Gradient-10)" transform="translate(6,6) scale(0,0)"/><ellipse id="_a24" rx="6" ry="6" fill="url(#Gradient-11)" transform="translate(6,6) scale(0,0)"/></g><g id="_a25" transform="translate(59.2,154.1) translate(-6,-6)"><ellipse id="glow-23" rx="12" ry="12" fill="url(#Gradient-10)" transform="translate(6,6) scale(0,0)"/><ellipse id="_a26" rx="6" ry="6" fill="url(#Gradient-11)" transform="translate(6,6) scale(0,0)"/></g></g></g><path id="Top-3" d="M130.6 .5h-114.6l-15.5 40.5h126.7l3.4-40.5Z" fill="url(#Gradient-9)" opacity=".75" transform="translate(99.4,9.6) scale(1.53846,1.53846) translate(-65.6,-20.7)"/><path id="_a27" fill="#7085ff" opacity="0" d="M-29.5-9.1l-3 9.1h2.2l.6-1.8h3l.6 1.8h2.2l-3-9.1Zm1.2 2.8h.2l.9 2.7h-1.9Zm11 .5l1.9-0.7c-0.4-1.5-1.8-2.7-3.8-2.7c-2.3 0-4.3 1.4-4.3 4.7c0 2.8 1.5 4.6 4.2 4.6c1.9 0 3.3-1.1 3.8-2.5l-1.8-0.8c-0.3 .9-1 1.5-1.9 1.5c-1.5 0-2.1-1.3-2.1-2.9c0-2 .9-2.8 2.1-2.8c1.1 0 1.7 .8 1.9 1.6Zm8.9 0l1.9-0.7c-0.4-1.5-1.7-2.7-3.8-2.7c-2.2 0-4.2 1.4-4.2 4.7c0 2.8 1.5 4.6 4.2 4.6c1.9 0 3.3-1.1 3.7-2.5l-1.8-0.8c-0.2 .9-1 1.5-1.9 1.5c-1.4 0-2.1-1.3-2.1-2.9c0-2 1-2.8 2.1-2.8c1.1 0 1.8 .8 1.9 1.6Zm3.2-3.3v9.1h5.8v-1.8h-3.7v-2h3.4v-1.8h-3.4v-1.7h3.4l.3-1.8Zm10.7 0h-3.5v9.1h2.1v-3h1.4c1.7 0 3.2-0.7 3.2-3c0-2.1-1.4-3.1-3.2-3.1Zm-1.4 1.8h1.2c.8 0 1.2 .5 1.2 1.2c0 .9-0.4 1.3-1.1 1.3h-1.3Zm5.2-1.8v1.8h2.4v7.3h2.1v-7.3h2.2l.2-1.8Zm8 0v9.1h5.8v-1.8h-3.6v-2h3.3v-1.8h-3.3v-1.7h3.4l.2-1.8Zm10.6 0h-3.3v9.1h3.2c2.5 0 4.4-1.5 4.4-4.8c0-3-1.8-4.3-4.3-4.3Zm-1.1 1.8h1.1c1.5 0 2.2 .8 2.2 2.6c0 1.6-0.6 2.9-2.4 2.9h-0.9Z" fill-rule="nonzero" transform="translate(106,195.1) translate(0,0) scale(1.53846,1.53846) translate(0,4.6)"/></g><g id="NearbyWorld2" clip-rule="evenodd" fill-rule="evenodd" stroke-linejoin="round" stroke-miterlimit="2" opacity="0" transform="translate(144.9,-119) translate(0,0) translate(-106.1,-166.2)"><path id="Reflection-2" d="M144.3 154.7l79.1 47.1l-9.8 129.9h-192.6v.3l-11.2-160.6Z" fill="url(#Gradient-0)" fill-rule="nonzero" opacity=".8" transform="translate(116.6,243.3) translate(-116.6,-243.3)"/><image id="_a28" xlink:href="./ShadowDark.png" width="195.9" height="92" preserveAspectRatio="none" transform="translate(108.9,187.6) translate(0,0) rotate(-14) skewX(31) scale(.93,1.15) translate(-100,-46)"/><path d="M8 .5l-1.5 102.4h103.9l12.2-102.4h-114.6Z" fill="url(#Gradient-1)" opacity=".5" transform="translate(99.1,57.2) scale(1.53846,1.53846) translate(-64.6,-51.7)"/><path d="M6.5 102.9h103.9l14.2 52.1h-115.7l-2.4-52.1Z" fill="url(#Gradient-0)" opacity=".8" transform="translate(100.6,176.1) scale(1.53846,1.53846) translate(-65.5,-129)"/><path d="M122.6 .5l15.5 40.5l-13.5 114l-14.2-52.1l12.2-102.4Z" fill="url(#Gradient-3)" opacity=".5" transform="translate(190.9,97.3) scale(1.53846,1.53846) translate(-124.2,-77.8)"/><path id="Left" d="M11.4 41l-3.4-40.5l-1.5 102.4l2.4 52.1l2.5-114Z" fill="url(#Gradient-3)" opacity=".5" transform="translate(13.6,97.4) scale(1.53846,1.53846) translate(-8.9,-77.8)"/><path id="Front" d="M11.4 41h126.7l-13.5 114h-115.7l2.5-114Z" fill="url(#Gradient-5)" opacity=".5" transform="translate(112.9,128.5) scale(1.53846,1.53846) translate(-73.5,-98)"/><g id="Network-5" opacity="0" transform="translate(106,106.7) translate(-108.8,-107.5)"><rect width="118.4" height="38.2" fill="url(#Gradient-6)" transform="translate(106.3,179.3) translate(-59.2,-19.1)"/><g transform="translate(108.9,96.7) translate(-108.9,-96.7)"><g transform="translate(108.8,96.7) translate(-108.8,-96.7)"><path d="M64.4 52.3h88.8" fill="none" stroke="#a995d0" stroke-width="1.3px" transform="translate(108.8,52.3) translate(-108.8,-52.3)"/><path d="M79.2 37.5h59.2" fill="none" stroke="#a995d0" stroke-width="1.3px" transform="translate(108.8,37.5) translate(-108.8,-37.5)"/><path d="M94 22.7h29.6" fill="none" stroke="#a995d0" stroke-width="1.3px" transform="translate(108.8,22.7) translate(-108.8,-22.7)"/><path d="M49.6 67.1h118.4" fill="none" stroke="#a995d0" stroke-width="1.3px" transform="translate(108.8,67.1) translate(-108.8,-67.1)"/><path d="M34.8 81.9h148" fill="none" stroke="#a995d0" stroke-width="1.3px" transform="translate(108.8,81.9) translate(-108.8,-81.9)"/><path d="M49.6 96.7h118.4" fill="none" stroke="#a995d0" stroke-width="1.3px" transform="translate(108.8,96.7) translate(-108.8,-96.7)"/><path d="M34.8 111.5h148" fill="none" stroke="#a995d0" stroke-width="1.3px" transform="translate(108.8,111.5) translate(-108.8,-111.5)"/><path d="M49.6 126.3h118.4" fill="none" stroke="#a995d0" stroke-width="1.3px" transform="translate(108.8,126.3) translate(-108.8,-126.3)"/><path d="M64.4 141.1h88.8" fill="none" stroke="#a995d0" stroke-width="1.3px" transform="translate(108.8,141.1) translate(-108.8,-141.1)"/><path d="M79.2 155.9h59.2" fill="none" stroke="#a995d0" stroke-width="1.3px" transform="translate(108.8,155.9) translate(-108.8,-155.9)"/><path d="M94 170.7h29.6" fill="none" stroke="#a995d0" stroke-width="1.3px" transform="translate(108.8,170.7) translate(-108.8,-170.7)"/></g><g transform="translate(108.8,96.7) translate(-108.8,-96.7)"><path d="M34.8 81.9l59.2-59.2" fill="none" stroke="#a995d0" stroke-width="1.3px" transform="translate(64.4,52.3) translate(-64.4,-52.3)"/><path d="M34.8 111.5l88.8-88.8" fill="none" stroke="#a995d0" stroke-width="1.3px" transform="translate(79.2,67.1) translate(-79.2,-67.1)"/><path d="M49.6 126.3l88.8-88.8" fill="none" stroke="#a995d0" stroke-width="1.3px" transform="translate(94,81.9) translate(-94,-81.9)"/><path d="M64.4 141.1l88.8-88.8" fill="none" stroke="#a995d0" stroke-width="1.3px" transform="translate(108.8,96.7) translate(-108.8,-96.7)"/><path d="M79.2 155.9l88.8-88.8" fill="none" stroke="#a995d0" stroke-width="1.3px" transform="translate(123.6,111.5) translate(-123.6,-111.5)"/><path d="M94 170.7l88.8-88.8" fill="none" stroke="#a995d0" stroke-width="1.3px" transform="translate(138.4,126.3) translate(-138.4,-126.3)"/><path d="M123.6 170.7l59.2-59.2" fill="none" stroke="#a995d0" stroke-width="1.3px" transform="translate(153.2,141.1) translate(-153.2,-141.1)"/></g><g transform="translate(108.8,96.7) translate(-108.8,-96.7)"><path d="M123.6 22.7l59.2 59.2" fill="none" stroke="#a995d0" stroke-width="1.3px" transform="translate(153.2,52.3) translate(-153.2,-52.3)"/><path d="M94 22.7l88.8 88.8" fill="none" stroke="#a995d0" stroke-width="1.3px" transform="translate(138.4,67.1) translate(-138.4,-67.1)"/><path d="M79.2 37.5l88.8 88.8" fill="none" stroke="#a995d0" stroke-width="1.3px" transform="translate(123.6,81.9) translate(-123.6,-81.9)"/><path d="M64.4 52.3l88.8 88.8" fill="none" stroke="#a995d0" stroke-width="1.3px" transform="translate(108.8,96.7) translate(-108.8,-96.7)"/><path d="M49.6 67.1l88.8 88.8" fill="none" stroke="#a995d0" stroke-width="1.3px" transform="translate(94,111.5) translate(-94,-111.5)"/><path d="M34.8 81.9l88.8 88.8" fill="none" stroke="#a995d0" stroke-width="1.3px" transform="translate(79.2,126.3) translate(-79.2,-126.3)"/><path d="M34.8 111.5l59.2 59.2" fill="none" stroke="#a995d0" stroke-width="1.3px" transform="translate(64.4,141.1) translate(-64.4,-141.1)"/></g><g transform="translate(108.9,96.7) translate(-108.9,-96.7)"><path d="M34.8 81.9v29.6" fill="none" stroke="#a995d0" stroke-width="1.3px" transform="translate(34.8,96.7) translate(-34.8,-96.7)"/><path d="M49.6 67.1v59.2" fill="none" stroke="#a995d0" stroke-width="1.3px" transform="translate(49.6,96.7) translate(-49.6,-96.7)"/><path d="M64.3 52.3l.1 88.8" fill="none" stroke="#a995d0" stroke-width="1.3px" transform="translate(64.4,96.7) translate(-64.4,-96.7)"/><path d="M79.2 37.5v118.4" fill="none" stroke="#a995d0" stroke-width="1.3px" transform="translate(79.2,96.7) translate(-79.2,-96.7)"/><path d="M94 22.7v148" fill="none" stroke="#a995d0" stroke-width="1.3px" transform="translate(94,96.7) translate(-94,-96.7)"/><path d="M108.8 37.5v118.4" fill="none" stroke="#a995d0" stroke-width="1.3px" transform="translate(108.8,96.7) translate(-108.8,-96.7)"/><path d="M123.6 22.7v148" fill="none" stroke="#a995d0" stroke-width="1.3px" transform="translate(123.6,96.7) translate(-123.6,-96.7)"/><path d="M138.4 37.5v118.4" fill="none" stroke="#a995d0" stroke-width="1.3px" transform="translate(138.4,96.7) translate(-138.4,-96.7)"/><path d="M153.3 52.3l-0.1 88.8" fill="none" stroke="#a995d0" stroke-width="1.3px" transform="translate(153.3,96.7) translate(-153.3,-96.7)"/><path d="M168.2 67.1l-0.1 59.2" fill="none" stroke="#a995d0" stroke-width="1.3px" transform="translate(168.1,96.7) translate(-168.1,-96.7)"/><path d="M182.9 81.9v29.6" fill="none" stroke="#a995d0" stroke-width="1.3px" transform="translate(182.9,96.7) translate(-182.9,-96.7)"/></g></g><g transform="translate(108.8,97.7) translate(-108.8,-97.7)"><use width="8" height="8" xlink:href="#BaseNode" transform="translate(94,22.7) translate(-4,-4)"/><use width="8" height="8" xlink:href="#BaseNode" transform="translate(123.6,22.7) translate(-4,-4)"/><use width="8" height="8" xlink:href="#BaseNode" transform="translate(79.2,37.1) translate(-4,-4)"/><use width="8" height="8" xlink:href="#BaseNode" transform="translate(108.8,37.1) translate(-4,-4)"/><use width="8" height="8" xlink:href="#BaseNode" transform="translate(138.4,37.1) translate(-4,-4)"/><use width="8" height="8" xlink:href="#BaseNode" transform="translate(64.3,52.3) translate(-4,-4)"/><use width="8" height="8" xlink:href="#BaseNode" transform="translate(94,52.3) translate(-4,-4)"/><use width="8" height="8" xlink:href="#BaseNode" transform="translate(123.6,52.3) translate(-4,-4)"/><use width="8" height="8" xlink:href="#BaseNode" transform="translate(153.2,52.3) translate(-4,-4)"/><use width="8" height="8" xlink:href="#BaseNode" transform="translate(49.6,67.1) translate(-4,-4)"/><use width="8" height="8" xlink:href="#BaseNode" transform="translate(79.2,67.1) translate(-4,-4)"/><use width="8" height="8" xlink:href="#BaseNode" transform="translate(108.8,67.1) translate(-4,-4)"/><use width="8" height="8" xlink:href="#BaseNode" transform="translate(138.4,67.1) translate(-4,-4)"/><use width="8" height="8" xlink:href="#BaseNode" transform="translate(168.2,67.1) translate(-4,-4)"/><use width="8" height="8" xlink:href="#BaseNode" transform="translate(34.8,81.9) translate(-4,-4)"/><use width="8" height="8" xlink:href="#BaseNode" transform="translate(64.3,81.9) translate(-4,-4)"/><use width="8" height="8" xlink:href="#BaseNode" transform="translate(94,81.9) translate(-4,-4)"/><use width="8" height="8" xlink:href="#BaseNode" transform="translate(123.6,81.9) translate(-4,-4)"/><use width="8" height="8" xlink:href="#BaseNode" transform="translate(153.2,81.9) translate(-4,-4)"/><use width="8" height="8" xlink:href="#BaseNode" transform="translate(182.9,81.9) translate(-4,-4)"/><use width="8" height="8" xlink:href="#BaseNode" transform="translate(49.6,96.7) translate(-4,-4)"/><use width="8" height="8" xlink:href="#BaseNode" transform="translate(79.2,96.7) translate(-4,-4)"/><use width="8" height="8" xlink:href="#BaseNode" transform="translate(108.8,96.7) translate(-4,-4)"/><use width="8" height="8" xlink:href="#BaseNode" transform="translate(138.4,96.7) translate(-4,-4)"/><use width="8" height="8" xlink:href="#BaseNode" transform="translate(168,96.7) translate(-4,-4)"/><use width="8" height="8" xlink:href="#BaseNode" transform="translate(34.8,111.5) translate(-4,-4)"/><use width="8" height="8" xlink:href="#BaseNode" transform="translate(64.3,111.5) translate(-4,-4)"/><use width="8" height="8" xlink:href="#BaseNode" transform="translate(94,111.5) translate(-4,-4)"/><use width="8" height="8" xlink:href="#BaseNode" transform="translate(123.6,111.5) translate(-4,-4)"/><use width="8" height="8" xlink:href="#BaseNode" transform="translate(153.2,111.5) translate(-4,-4)"/><use width="8" height="8" xlink:href="#BaseNode" transform="translate(182.9,111.5) translate(-4,-4)"/><use width="8" height="8" xlink:href="#BaseNode" transform="translate(49.6,126.3) translate(-4,-4)"/><use width="8" height="8" xlink:href="#BaseNode" transform="translate(79.2,126.3) translate(-4,-4)"/><use width="8" height="8" xlink:href="#BaseNode" transform="translate(108.8,126.3) translate(-4,-4)"/><use width="8" height="8" xlink:href="#BaseNode" transform="translate(138.4,126.3) translate(-4,-4)"/><use width="8" height="8" xlink:href="#BaseNode" transform="translate(168,126.3) translate(-4,-4)"/><use width="8" height="8" xlink:href="#BaseNode" transform="translate(64.4,141.1) translate(-4,-4)"/><use width="8" height="8" xlink:href="#BaseNode" transform="translate(94,141.1) translate(-4,-4)"/><use width="8" height="8" xlink:href="#BaseNode" transform="translate(123.6,141.1) translate(-4,-4)"/><use width="8" height="8" xlink:href="#BaseNode" transform="translate(153.2,141.1) translate(-4,-4)"/><use width="8" height="8" xlink:href="#BaseNode" transform="translate(79.2,155.9) translate(-4,-4)"/><use width="8" height="8" xlink:href="#BaseNode" transform="translate(108.8,155.9) translate(-4,-4)"/><use width="8" height="8" xlink:href="#BaseNode" transform="translate(138.4,155.9) translate(-4,-4)"/><use width="8" height="8" xlink:href="#BaseNode" transform="translate(94,170.7) translate(-4,-4)"/><use width="8" height="8" xlink:href="#BaseNode" transform="translate(123.6,170.7) translate(-4,-4)"/></g><g transform="translate(97,96.7) translate(-32.6,-80)"><path id="Line-5" d="M123.7 22.7l-44.6 44.3l29.9 29.7l-15 14.8l29.7 29.2v30" fill="none" stroke="#7085ff" stroke-width="4" stroke-dasharray="210" stroke-dashoffset="210" transform="translate(29.6,80) translate(-94,-96.7)"/><g transform="translate(59.3,6) translate(-6,-6)"><ellipse id="glow-24" rx="12" ry="12" fill="url(#Gradient-10)" transform="translate(6,6) scale(0,0)"/><ellipse id="_a29" rx="6" ry="6" fill="url(#Gradient-11)" transform="translate(6,6) scale(0,0)"/></g><g transform="translate(44.5,20.8) translate(-6,-6)"><ellipse id="glow-25" rx="12" ry="12" fill="url(#Gradient-10)" transform="translate(6,6) scale(0,0)"/><ellipse id="_a30" rx="6" ry="6" fill="url(#Gradient-11)" transform="translate(6,6) scale(0,0)"/></g><g transform="translate(29.6,35.6) translate(-6,-6)"><ellipse id="glow-26" rx="12" ry="12" fill="url(#Gradient-10)" transform="translate(6,6) scale(0,0)"/><ellipse id="_a31" rx="6" ry="6" fill="url(#Gradient-11)" transform="translate(6,6) scale(0,0)"/></g><g transform="translate(14.8,50.4) translate(-6,-6)"><ellipse id="glow-27" rx="12" ry="12" fill="url(#Gradient-10)" transform="translate(6,6) scale(0,0)"/><ellipse id="_a32" rx="6" ry="6" fill="url(#Gradient-11)" transform="translate(6,6) scale(0,0)"/></g><g transform="translate(29.6,65.2) translate(-6,-6)"><ellipse id="glow-28" rx="12" ry="12" fill="url(#Gradient-10)" transform="translate(6,6) scale(0,0)"/><ellipse id="_a33" rx="6" ry="6" fill="url(#Gradient-11)" transform="translate(6,6) scale(0,0)"/></g><g transform="translate(44.5,80) translate(-6,-6)"><ellipse id="glow-29" rx="12" ry="12" fill="url(#Gradient-10)" transform="translate(6,6) scale(0,0)"/><ellipse id="_a34" rx="6" ry="6" fill="url(#Gradient-11)" transform="translate(6,6) scale(0,0)"/></g><g transform="translate(29.6,94.8) translate(-6,-6)"><ellipse id="glow-30" rx="12" ry="12" fill="url(#Gradient-10)" transform="translate(6,6) scale(0,0)"/><ellipse id="_a35" rx="6" ry="6" fill="url(#Gradient-11)" transform="translate(6,6) scale(0,0)"/></g><g transform="translate(44.4,109.6) translate(-6,-6)"><ellipse id="glow-31" rx="12" ry="12" fill="url(#Gradient-10)" transform="translate(6,6) scale(0,0)"/><ellipse id="_a36" rx="6" ry="6" fill="url(#Gradient-11)" transform="translate(6,6) scale(0,0)"/></g><g transform="translate(59.2,124.4) translate(-6,-6)"><ellipse id="glow-32" rx="12" ry="12" fill="url(#Gradient-10)" transform="translate(6,6) scale(0,0)"/><ellipse id="_a37" rx="6" ry="6" fill="url(#Gradient-11)" transform="translate(6,6) scale(0,0)"/></g><g id="_a38" transform="translate(59.2,154.1) translate(-6,-6)"><ellipse id="glow-33" rx="12" ry="12" fill="url(#Gradient-10)" transform="translate(6,6) scale(0,0)"/><ellipse id="_a39" rx="6" ry="6" fill="url(#Gradient-11)" transform="translate(6,6) scale(0,0)"/></g></g></g><path id="Top" d="M8 .5h114.6l15.5 40.5h-126.7l-3.4-40.5Z" fill="url(#Gradient-9)" opacity=".75" transform="translate(112.2,9.6) scale(1.53846,1.53846) translate(-73.1,-20.7)"/><path id="_a40" fill="#7085ff" opacity="0" d="M-29.5-9.1l-3 9.1h2.2l.6-1.8h3l.6 1.8h2.2l-3-9.1Zm1.2 2.8h.2l.9 2.7h-1.9Zm11 .5l1.9-0.7c-0.4-1.5-1.8-2.7-3.8-2.7c-2.3 0-4.3 1.4-4.3 4.7c0 2.8 1.5 4.6 4.2 4.6c1.9 0 3.3-1.1 3.8-2.5l-1.8-0.8c-0.3 .9-1 1.5-1.9 1.5c-1.5 0-2.1-1.3-2.1-2.9c0-2 .9-2.8 2.1-2.8c1.1 0 1.7 .8 1.9 1.6Zm8.9 0l1.9-0.7c-0.4-1.5-1.7-2.7-3.8-2.7c-2.2 0-4.2 1.4-4.2 4.7c0 2.8 1.5 4.6 4.2 4.6c1.9 0 3.3-1.1 3.7-2.5l-1.8-0.8c-0.2 .9-1 1.5-1.9 1.5c-1.4 0-2.1-1.3-2.1-2.9c0-2 1-2.8 2.1-2.8c1.1 0 1.8 .8 1.9 1.6Zm3.2-3.3v9.1h5.8v-1.8h-3.7v-2h3.4v-1.8h-3.4v-1.7h3.4l.3-1.8Zm10.7 0h-3.5v9.1h2.1v-3h1.4c1.7 0 3.2-0.7 3.2-3c0-2.1-1.4-3.1-3.2-3.1Zm-1.4 1.8h1.2c.8 0 1.2 .5 1.2 1.2c0 .9-0.4 1.3-1.1 1.3h-1.3Zm5.2-1.8v1.8h2.4v7.3h2.1v-7.3h2.2l.2-1.8Zm8 0v9.1h5.8v-1.8h-3.6v-2h3.3v-1.8h-3.3v-1.7h3.4l.2-1.8Zm10.6 0h-3.3v9.1h3.2c2.5 0 4.4-1.5 4.4-4.8c0-3-1.8-4.3-4.3-4.3Zm-1.1 1.8h1.1c1.5 0 2.2 .8 2.2 2.6c0 1.6-0.6 2.9-2.4 2.9h-0.9Z" fill-rule="nonzero" transform="translate(102.5,195.1) translate(0,0) scale(1.53846,1.53846) translate(0,4.6)"/></g><path id="_a41" fill="#c5b8df" opacity="0" d="M-90.1-9.8v9.8h2.3v-5.8l3 5.8h2.7v-9.8h-2.3v6.2l-3.1-6.2Zm9.8 0v9.8h6.2v-2h-3.9v-2.1h3.6v-1.9h-3.6v-1.9h3.6l.3-1.9Zm10.5 0l-3.3 9.8h2.4l.6-2h3.2l.7 2h2.4l-3.3-9.8Zm1.3 3.1h.1l.9 2.9h-2Zm9.6-3.1h-3.8v9.8h2.4v-3.4l1.2-0.1l1.5 3.5h2.5l-1.8-3.8c.9-0.5 1.5-1.4 1.5-2.8c0-2.2-1.5-3.2-3.5-3.2Zm-1.4 1.9h1.3c.9 0 1.3 .5 1.3 1.2c0 .8-0.5 1.3-1.3 1.3h-1.3Zm10.6-1.9h-4v9.8h3.9c2.3 0 3.6-1.1 3.6-2.9c0-1.2-0.6-2-1.5-2.3c.8-0.3 1.2-1.1 1.2-2.1c0-1.8-1.2-2.5-3.2-2.5Zm-1.7 1.9h1.6c.6 0 1 .3 1 .9c0 .6-0.4 .9-1 .9h-1.6Zm0 3.8h1.6c.8 0 1.3 .3 1.2 1.1c0 .7-0.4 1-1.2 1h-1.6Zm5.6-5.7l3.1 6.2v3.6h2.3v-3.6l3.2-6.2h-2.6l-1.7 4.1h-0.1l-1.6-4.1Zm16.7 0h-3.7v9.8h2.3v-3.2h1.4c1.9 0 3.4-0.8 3.4-3.3c0-2.3-1.5-3.3-3.4-3.3Zm-1.4 1.9h1.2c.9 0 1.4 .6 1.4 1.3c0 1-0.6 1.4-1.3 1.4h-1.3Zm10.5-2c-2.4 0-4.5 1.5-4.5 5c0 2.8 1.6 5 4.5 5c3 0 4.5-2.2 4.5-5c0-3.5-2.1-5-4.5-5Zm0 1.9c1.2 0 2.3 .9 2.3 3.1c0 1.6-0.7 3-2.3 3c-1.6 0-2.2-1.4-2.2-3c0-2.2 1.1-3.1 2.2-3.1Zm12.1 .8l.8-1.7c-0.7-0.5-2.1-1-3.5-1c-1.9 0-3.5 .9-3.5 2.8c0 3.2 4.8 2.7 4.8 4.3c0 .6-0.5 .9-1.4 .9c-1.3 0-2.1-0.5-2.7-1l-1 1.8c0 0 1.3 1.2 3.8 1.2c2.1 0 3.6-1 3.6-3.2c0-3.3-4.8-2.6-4.8-4.1c0-0.5 .4-0.8 1.1-0.8c1 0 2 .3 2.8 .8Zm8.5 0l.8-1.7c-0.7-0.5-2-1-3.5-1c-1.9 0-3.4 .9-3.4 2.8c0 3.2 4.7 2.7 4.7 4.3c0 .6-0.4 .9-1.4 .9c-1.3 0-2.1-0.5-2.7-1l-1 1.8c0 0 1.4 1.2 3.9 1.2c2 0 3.6-1 3.6-3.2c0-3.3-4.9-2.6-4.8-4.1c0-0.5 .4-0.8 1.1-0.8c.9 0 1.9 .3 2.7 .8Zm2.5-2.6v9.8h2.3v-9.8Zm8.1 0h-4v9.8h4c2.3 0 3.5-1.1 3.5-2.9c0-1.2-0.6-2-1.4-2.3c.7-0.3 1.1-1.1 1.1-2.1c0-1.8-1.1-2.5-3.2-2.5Zm-1.7 1.9h1.7c.6 0 .9 .3 .9 .9c0 .6-0.3 .9-1 .9h-1.6Zm0 3.8h1.6c.8 0 1.3 .3 1.3 1.1c0 .7-0.5 1-1.2 1h-1.7Zm6.7-5.7v9.8h5.7v-2h-3.4v-7.8Zm7 0v9.8h6.3v-2h-4v-2.1h3.6v-1.9h-3.6v-1.9h3.7l.2-1.9Zm10.4 0l2.3 9.8h2.7l1.5-5.9l1.5 5.9h2.6l2.4-9.8h-2.4l-1.4 7.2h-0.1l-1.5-7.2h-2.2l-1.5 7.2h-0.1l-1.4-7.2Zm18.1-0.1c-2.4 0-4.5 1.5-4.5 5c0 2.8 1.6 5 4.5 5c3 0 4.5-2.2 4.5-5c0-3.5-2.1-5-4.5-5Zm0 1.9c1.2 0 2.2 .9 2.2 3.1c0 1.6-0.6 3-2.2 3c-1.6 0-2.2-1.4-2.2-3c0-2.2 1.1-3.1 2.2-3.1Zm9.9-1.8h-3.8v9.8h2.4v-3.4l1.2-0.1l1.5 3.5h2.5l-1.8-3.8c.9-0.5 1.5-1.4 1.5-2.8c0-2.2-1.5-3.2-3.5-3.2Zm-1.4 1.9h1.3c.9 0 1.3 .5 1.3 1.2c0 .8-0.5 1.3-1.3 1.3h-1.3Zm6.6-1.9v9.8h5.7v-2h-3.4v-7.8Zm10.5 0h-3.5v9.8h3.4c2.7 0 4.7-1.6 4.7-5.2c0-3.2-1.9-4.6-4.6-4.6Zm-1.2 1.9h1.2c1.6 0 2.3 .9 2.3 2.8c0 1.8-0.5 3.1-2.5 3.1h-1Zm13.3 .7l.8-1.7c-0.7-0.5-2-1-3.5-1c-1.9 0-3.4 .9-3.4 2.8c0 3.2 4.7 2.7 4.7 4.3c0 .6-0.4 .9-1.4 .9c-1.3 0-2.1-0.5-2.7-1l-1 1.8c0 0 1.4 1.2 3.9 1.2c2 0 3.6-1 3.6-3.2c0-3.3-4.9-2.6-4.8-4.1c0-0.5 .4-0.8 1.1-0.8c.9 0 1.9 .3 2.7 .8Z" transform="translate(226.9,173.3) translate(0,0) translate(-78.1,4.9)"/><path id="_a42" fill="#c5b8df" opacity="0" d="M-41.8-8.4l2.9 8.4h1.3l2.8-8.4h-1.1l-2.3 7.2h-0.1l-2.4-7.2Zm8.8 0v8.4h1v-8.4Zm8.8 1.4l.4-0.8c0 0-1.4-0.7-2.9-0.7c-1.7 0-2.9 .7-2.9 2.2c0 2.7 4.9 2 4.9 4c0 .9-0.8 1.6-2.1 1.6c-1.5 0-2.6-1-2.6-1l-0.5 .8c0 0 1.2 1 3.1 1c1.8 0 3.1-0.8 3.1-2.5c.1-2.9-4.8-2-4.8-4c0-1 .7-1.3 1.8-1.3c1.2 0 2.5 .7 2.5 .7Zm4.9-1.4l-3.1 8.4h1.1l.8-2.2h3.8l.8 2.2h1l-3-8.4Zm.6 1.1h.1l1.6 4.2h-3.2Zm8.2-1.1v.8h2.4v7.6h1v-7.6h2.4l.1-0.8Zm7 0l2.9 5.2v3.2h1v-3.2l2.9-5.2h-1.2l-2.2 4.2h-0.1l-2.1-4.2Zm11.3 0h-2.6v8.4h1v-3h1.6c1.7 0 3-0.7 3-2.7c0-1.9-1.3-2.7-3-2.7Zm-1.6 .8h1.6c1.4 0 2 .8 2 1.8c0 1.3-0.7 1.9-2 1.9h-1.6Zm6.5-0.8v8.4h4.9v-0.9h-3.8v-3h3.5v-0.9h-3.5v-2.8h3.7l.1-0.8Zm10.6 0l-0.5 4.5l1 .1c.1-0.2 .6-0.8 1.6-0.8c.9 .1 1.6 .7 1.6 1.8c0 1.2-0.7 2-1.8 2c-1.8 0-1.8-1.5-1.8-1.5l-0.9 .3c0 .5 .6 2.1 2.7 2.1c2-0.1 2.8-1.6 2.8-2.9c0-1.7-1.1-2.6-2.5-2.6c-0.9 0-1.4 .4-1.7 .8l.4-3h3.3l.1-0.8Zm9.2-0.2c-1.7 0-3.2 1.2-3.2 4.2c0 2.9 1.1 4.5 3.2 4.5c2 0 3-1.7 3-4.5c0-3-1.4-4.2-3-4.2Zm0 .8c1.1 0 2 .9 2 3.4c0 2.6-0.6 3.6-2 3.6c-1.4 0-2.2-1-2.2-3.6c0-2.5 1-3.4 2.2-3.4Zm4.4-0.6v.8h1.5v7.6h1v-8.4Z" transform="translate(141.4,173.3) translate(-78.1,4.9)"/><g id="StayLength" opacity="0" transform="translate(226.2,182) translate(-69.9,-15.2)"><text id="_a43" fill="#c5b8df" font-size="12" font-family="'ABC Sans Nova'" letter-spacing=".03em" word-spacing="0" opacity="0" text-anchor="middle" transform="translate(148.1,22.6) translate(-78.1,4.9)" style="line-height: 16px;">BY 14 DAYS</text><text id="_a44" fill="#c5b8df" font-size="12" font-family="'ABC Sans Nova'" letter-spacing=".03em" word-spacing="0" opacity="0" text-anchor="middle" transform="translate(148.1,6.5) translate(-78.1,4.9)" style="line-height: 16px;">STAY LENGTH REDUCED</text></g></g></g><script xlink:href="keyshapejs-1.2.1.min.js"/><script><![CDATA[if(KeyshapeJS.version.indexOf('1.')!=0)throw Error('Expected KeyshapeJS v1.*.*');window.ks=document.ks=KeyshapeJS;(function(ks){
var tl=ks.animate("#Everything",[{p:'mpath',t:[1750,2750],v:['0%','100%'],e:[[1,0,0,.6,1],[0]],mp:"M397,439.9L397,277.3"}],
"#Reflection-5",[{p:'d',t:[0,458,1000],v:["path('M144.3,154.7L223.4,201.8L213.6,331.7L21,331.7L21,332L9.8,171.4Z')","path('M166.5,185.4L207.1,217.3L199.3,332.1L36,332.1L29.8,224.4L25.5,152.4Z')","path('M178.3,201.7L198.4,225.5L191.6,332.4L20.3,332.4L13.6,225.5L35.7,201.7Z')"],e:[[0],[1,0,0,.6,1],[0]]}],
"#_a0",[{p:'mpath',t:[0,1000],v:['0%','100%'],e:[[1,0,0,.6,1],[0]],mp:"M108.9,187.6L106,187.1"},{p:'rotate',t:[0,1000],v:[-14,0],e:[[1,0,0,.6,1],[0]]},{p:'skewX',t:[0,1000],v:[31,0],e:[[1,0,0,.6,1],[0]]},{p:'skewY',t:[0,1000],v:[0,0],e:[[1,0,0,.6,1],[0]]},{p:'scaleX',t:[0,1000],v:[.9,1],e:[[1,0,0,.6,1],[0]]},{p:'scaleY',t:[0,1000],v:[1.2,1],e:[[1,0,0,.6,1],[0]]}],
"#Solid",[{p:'d',t:[0,1000],v:["path('M54,52.4L.1,11.7L144.3,.8L236.1,26.6L223.7,195.7L63.7,236.6Z')","path('M2.3,32.2L27,.8L185,.8L211.3,32.4L199.3,216.8L12,216.8Z')"],e:[[1,0,0,.6,1],[0]]}],
"#Back-2",[{p:'opacity',t:[1000,1750,7000,7750],v:[0,.5,.5,1],e:[[0],[0],[0],[0]]}],
"#Bottom-2",[{p:'opacity',t:[1000,1750,7000,7750],v:[0,.5,.5,1],e:[[0],[0],[0],[0]]}],
"#Right-2",[{p:'opacity',t:[1000,1333,1750,7000,7750],v:[0,.8,.5,.5,1],e:[[0],[0],[0],[0],[0]]}],
"#Left-2",[{p:'opacity',t:[1000,1750,7000,7750],v:[1,.5,.5,1],e:[[0],[0],[0],[0]]},{p:'d',t:[0,1000],v:["path('M9.8,161.4L.1,11.7L57.5,45.7L63.7,236.6Z')","path('M33.4,145.8L26.5,.1L.6,32.3L11.9,217.3Z')"],e:[[1,0,0,.6,1],[0]]}],
"#Front-3",[{p:'opacity',t:[1000,1750,7000,7750],v:[1,.5,.5,1],e:[[0],[0],[0],[0]]},{p:'d',t:[0,1000],v:["path('M63.7,236.6L57.5,45.7L236.1,26.6L223.7,195.7Z')","path('M11.9,217.3L.6,32.3L211.3,32.3L199.6,217.3Z')"],e:[[1,0,0,.6,1],[0]]}],
"#Network-2",[{p:'opacity',t:[1000,1750,7000,7750],v:[0,1,1,0],e:[[0],[0],[0],[0]]}],
"#Line-2",[{p:'strokeDashoffset',t:[3250,4250],v:[210,0],e:[[0],[0]]}],
"#glow-3",[{p:'scaleX',t:[3250,3625],v:[0,1],e:[[1,.4,0,.6,1],[0]]},{p:'scaleY',t:[3250,3625],v:[0,1],e:[[1,.4,0,.6,1],[0]]}],
"#_a1",[{p:'scaleX',t:[3250,3625],v:[0,1],e:[[1,.4,0,.6,1],[0]]},{p:'scaleY',t:[3250,3625],v:[0,1],e:[[1,.4,0,.6,1],[0]]}],
"#glow-4",[{p:'scaleX',t:[3333,3708],v:[0,1],e:[[1,.4,0,.6,1],[0]]},{p:'scaleY',t:[3333,3708],v:[0,1],e:[[1,.4,0,.6,1],[0]]}],
"#_a2",[{p:'scaleX',t:[3333,3708],v:[0,1],e:[[1,.4,0,.6,1],[0]]},{p:'scaleY',t:[3333,3708],v:[0,1],e:[[1,.4,0,.6,1],[0]]}],
"#glow-5",[{p:'scaleX',t:[3417,3792],v:[0,1],e:[[1,.4,0,.6,1],[0]]},{p:'scaleY',t:[3417,3792],v:[0,1],e:[[1,.4,0,.6,1],[0]]}],
"#_a3",[{p:'scaleX',t:[3417,3792],v:[0,1],e:[[1,.4,0,.6,1],[0]]},{p:'scaleY',t:[3417,3792],v:[0,1],e:[[1,.4,0,.6,1],[0]]}],
"#glow-6",[{p:'scaleX',t:[3500,3875],v:[0,1],e:[[1,.4,0,.6,1],[0]]},{p:'scaleY',t:[3500,3875],v:[0,1],e:[[1,.4,0,.6,1],[0]]}],
"#_a4",[{p:'scaleX',t:[3500,3875],v:[0,1],e:[[1,.4,0,.6,1],[0]]},{p:'scaleY',t:[3500,3875],v:[0,1],e:[[1,.4,0,.6,1],[0]]}],
"#glow-7",[{p:'scaleX',t:[3583,3958],v:[0,1],e:[[1,.4,0,.6,1],[0]]},{p:'scaleY',t:[3583,3958],v:[0,1],e:[[1,.4,0,.6,1],[0]]}],
"#_a5",[{p:'scaleX',t:[3583,3958],v:[0,1],e:[[1,.4,0,.6,1],[0]]},{p:'scaleY',t:[3583,3958],v:[0,1],e:[[1,.4,0,.6,1],[0]]}],
"#glow-8",[{p:'scaleX',t:[3667,4042],v:[0,1],e:[[1,.4,0,.6,1],[0]]},{p:'scaleY',t:[3667,4042],v:[0,1],e:[[1,.4,0,.6,1],[0]]}],
"#_a6",[{p:'scaleX',t:[3667,4042],v:[0,1],e:[[1,.4,0,.6,1],[0]]},{p:'scaleY',t:[3667,4042],v:[0,1],e:[[1,.4,0,.6,1],[0]]}],
"#glow-9",[{p:'scaleX',t:[3750,4125],v:[0,1],e:[[1,.4,0,.6,1],[0]]},{p:'scaleY',t:[3750,4125],v:[0,1],e:[[1,.4,0,.6,1],[0]]}],
"#_a7",[{p:'scaleX',t:[3750,4125],v:[0,1],e:[[1,.4,0,.6,1],[0]]},{p:'scaleY',t:[3750,4125],v:[0,1],e:[[1,.4,0,.6,1],[0]]}],
"#glow-10",[{p:'scaleX',t:[3833,4208],v:[0,1],e:[[1,.4,0,.6,1],[0]]},{p:'scaleY',t:[3833,4208],v:[0,1],e:[[1,.4,0,.6,1],[0]]}],
"#_a8",[{p:'scaleX',t:[3833,4208],v:[0,1],e:[[1,.4,0,.6,1],[0]]},{p:'scaleY',t:[3833,4208],v:[0,1],e:[[1,.4,0,.6,1],[0]]}],
"#glow-11",[{p:'scaleX',t:[3917,4292],v:[0,1],e:[[1,.4,0,.6,1],[0]]},{p:'scaleY',t:[3917,4292],v:[0,1],e:[[1,.4,0,.6,1],[0]]}],
"#_a9",[{p:'scaleX',t:[3917,4292],v:[0,1],e:[[1,.4,0,.6,1],[0]]},{p:'scaleY',t:[3917,4292],v:[0,1],e:[[1,.4,0,.6,1],[0]]}],
"#glow-12",[{p:'scaleX',t:[4000,4375],v:[0,1],e:[[1,.4,0,.6,1],[0]]},{p:'scaleY',t:[4000,4375],v:[0,1],e:[[1,.4,0,.6,1],[0]]}],
"#_a10",[{p:'scaleX',t:[4000,4375],v:[0,1],e:[[1,.4,0,.6,1],[0]]},{p:'scaleY',t:[4000,4375],v:[0,1],e:[[1,.4,0,.6,1],[0]]}],
"#_a11",[{p:'scaleX',t:[4083,4458],v:[1,1.3],e:[[0],[0]]},{p:'scaleY',t:[4083,4458],v:[1,1.3],e:[[0],[0]]}],
"#glow-13",[{p:'scaleX',t:[4083,4458],v:[0,1],e:[[1,.4,0,.6,1],[0]]},{p:'scaleY',t:[4083,4458],v:[0,1],e:[[1,.4,0,.6,1],[0]]}],
"#_a12",[{p:'scaleX',t:[4083,4458],v:[0,1],e:[[1,.4,0,.6,1],[0]]},{p:'scaleY',t:[4083,4458],v:[0,1],e:[[1,.4,0,.6,1],[0]]}],
"#Top-2",[{p:'opacity',t:[1000,1750,7000,7750],v:[1,.8,.8,1],e:[[0],[0],[0],[0]]},{p:'d',t:[0,1000],v:["path('M57.5,45.7L.1,11.7L144.3,.8L236.1,26.6Z')","path('M.6,32.3L26.5,.1L184.8,.1L211.3,32.3Z')"],e:[[1,0,0,.6,1],[0]]}],
"#_a13",[{p:'opacity',t:[2750,3250],v:[0,1],e:[[0],[0]]}],
"#_a14",[{p:'mpath',t:[7000,7750],v:['0%','100%'],e:[[1,.4,0,.6,1],[0]],mp:"M110,197.5L110,114.7"},{p:'scaleX',t:[7000,7750],v:[1,1.5],e:[[0],[0]]},{p:'scaleY',t:[7000,7750],v:[1,1.5],e:[[0],[0]]},{p:'opacity',t:[4458,4750],v:[0,1],e:[[0],[0]]}],
"#NearbyWorld1",[{p:'mpath',t:[1750,2750],v:['0%','100%'],e:[[1,0,0,.6,1],[0]],mp:"M144.9,-119L63.3,119.7"},{p:'scaleX',t:[1750,2750],v:[1,.7],e:[[0],[0]]},{p:'scaleY',t:[1750,2750],v:[1,.7],e:[[0],[0]]},{p:'opacity',t:[1750,2750],v:[0,1],e:[[0],[0]]}],
"#Reflection-3",[{p:'d',t:[0,375,1000,2750],v:["path('M144.3,154.7L223.4,201.8L213.6,331.7L21,331.7L21,332L9.8,171.4Z')","path('M166.5,185.4L210.1,214.3L199.3,332.1L36,332.1L29.7,224.4L26,157.7Z')","path('M178.3,201.7L198.4,225.5L191.6,332.4L20.3,332.4L13.6,225.5L35.7,201.7Z')","path('M178.3,201.7L196.1,225.5L189.3,332.4L31,332.4L21,221.1L35.7,201.7Z')"],e:[[1,0,0,.6,1],[1,.4,0,.6,1],[0],[0]]}],
"#_a15",[{p:'mpath',t:[0,1000],v:['0%','100%'],e:[[1,0,0,.6,1],[0]],mp:"M108.9,187.6L106,187.1"},{p:'rotate',t:[0,1000],v:[-13,0],e:[[1,0,0,.6,1],[0]]},{p:'skewX',t:[0,1000],v:[32,0],e:[[1,0,0,.6,1],[0]]},{p:'skewY',t:[0,1000],v:[0,0],e:[[1,0,0,.6,1],[0]]},{p:'scaleX',t:[0,1000],v:[.9,1],e:[[1,0,0,.6,1],[0]]},{p:'scaleY',t:[0,1000],v:[1.2,1],e:[[1,0,0,.6,1],[0]]}],
"#Left-3",[{p:'opacity',t:[7000,7750],v:[.5,1],e:[[0],[0]]}],
"#Front-2",[{p:'opacity',t:[7000,7750],v:[.5,1],e:[[0],[0]]}],
"#Network-3",[{p:'opacity',t:[1000,1750,7000,7750],v:[0,1,1,0],e:[[0],[0],[0],[0]]}],
"#Line-3",[{p:'strokeDashoffset',t:[5125,6125],v:[210,0],e:[[0],[0]]}],
"#glow-14",[{p:'scaleX',t:[5125,5500],v:[0,1],e:[[1,.4,0,.6,1],[0]]},{p:'scaleY',t:[5125,5500],v:[0,1],e:[[1,.4,0,.6,1],[0]]}],
"#_a16",[{p:'scaleX',t:[5125,5500],v:[0,1],e:[[1,.4,0,.6,1],[0]]},{p:'scaleY',t:[5125,5500],v:[0,1],e:[[1,.4,0,.6,1],[0]]}],
"#glow-15",[{p:'scaleX',t:[5208,5583],v:[0,1],e:[[1,.4,0,.6,1],[0]]},{p:'scaleY',t:[5208,5583],v:[0,1],e:[[1,.4,0,.6,1],[0]]}],
"#_a17",[{p:'scaleX',t:[5208,5583],v:[0,1],e:[[1,.4,0,.6,1],[0]]},{p:'scaleY',t:[5208,5583],v:[0,1],e:[[1,.4,0,.6,1],[0]]}],
"#glow-16",[{p:'scaleX',t:[5292,5667],v:[0,1],e:[[1,.4,0,.6,1],[0]]},{p:'scaleY',t:[5292,5667],v:[0,1],e:[[1,.4,0,.6,1],[0]]}],
"#_a18",[{p:'scaleX',t:[5292,5667],v:[0,1],e:[[1,.4,0,.6,1],[0]]},{p:'scaleY',t:[5292,5667],v:[0,1],e:[[1,.4,0,.6,1],[0]]}],
"#glow-17",[{p:'scaleX',t:[5375,5750],v:[0,1],e:[[1,.4,0,.6,1],[0]]},{p:'scaleY',t:[5375,5750],v:[0,1],e:[[1,.4,0,.6,1],[0]]}],
"#_a19",[{p:'scaleX',t:[5375,5750],v:[0,1],e:[[1,.4,0,.6,1],[0]]},{p:'scaleY',t:[5375,5750],v:[0,1],e:[[1,.4,0,.6,1],[0]]}],
"#glow-18",[{p:'scaleX',t:[5458,5833],v:[0,1],e:[[1,.4,0,.6,1],[0]]},{p:'scaleY',t:[5458,5833],v:[0,1],e:[[1,.4,0,.6,1],[0]]}],
"#_a20",[{p:'scaleX',t:[5458,5833],v:[0,1],e:[[1,.4,0,.6,1],[0]]},{p:'scaleY',t:[5458,5833],v:[0,1],e:[[1,.4,0,.6,1],[0]]}],
"#glow-19",[{p:'scaleX',t:[5542,5917],v:[0,1],e:[[1,.4,0,.6,1],[0]]},{p:'scaleY',t:[5542,5917],v:[0,1],e:[[1,.4,0,.6,1],[0]]}],
"#_a21",[{p:'scaleX',t:[5542,5917],v:[0,1],e:[[1,.4,0,.6,1],[0]]},{p:'scaleY',t:[5542,5917],v:[0,1],e:[[1,.4,0,.6,1],[0]]}],
"#glow-20",[{p:'scaleX',t:[5625,6000],v:[0,1],e:[[1,.4,0,.6,1],[0]]},{p:'scaleY',t:[5625,6000],v:[0,1],e:[[1,.4,0,.6,1],[0]]}],
"#_a22",[{p:'scaleX',t:[5625,6000],v:[0,1],e:[[1,.4,0,.6,1],[0]]},{p:'scaleY',t:[5625,6000],v:[0,1],e:[[1,.4,0,.6,1],[0]]}],
"#glow-21",[{p:'scaleX',t:[5708,6083],v:[0,1],e:[[1,.4,0,.6,1],[0]]},{p:'scaleY',t:[5708,6083],v:[0,1],e:[[1,.4,0,.6,1],[0]]}],
"#_a23",[{p:'scaleX',t:[5708,6083],v:[0,1],e:[[1,.4,0,.6,1],[0]]},{p:'scaleY',t:[5708,6083],v:[0,1],e:[[1,.4,0,.6,1],[0]]}],
"#glow-22",[{p:'scaleX',t:[5792,6167],v:[0,1],e:[[1,.4,0,.6,1],[0]]},{p:'scaleY',t:[5792,6167],v:[0,1],e:[[1,.4,0,.6,1],[0]]}],
"#_a24",[{p:'scaleX',t:[5792,6167],v:[0,1],e:[[1,.4,0,.6,1],[0]]},{p:'scaleY',t:[5792,6167],v:[0,1],e:[[1,.4,0,.6,1],[0]]}],
"#_a25",[{p:'scaleX',t:[5958,6333],v:[1,1.3],e:[[0],[0]]},{p:'scaleY',t:[5958,6333],v:[1,1.3],e:[[0],[0]]}],
"#glow-23",[{p:'scaleX',t:[5958,6333],v:[0,1],e:[[1,.4,0,.6,1],[0]]},{p:'scaleY',t:[5958,6333],v:[0,1],e:[[1,.4,0,.6,1],[0]]}],
"#_a26",[{p:'scaleX',t:[5958,6333],v:[0,1],e:[[1,.4,0,.6,1],[0]]},{p:'scaleY',t:[5958,6333],v:[0,1],e:[[1,.4,0,.6,1],[0]]}],
"#Top-3",[{p:'opacity',t:[7000,7750],v:[.8,1],e:[[0],[0]]}],
"#_a27",[{p:'mpath',t:[7000,7750],v:['0%','100%'],e:[[1,.4,0,.6,1],[0]],mp:"M106,195.1L106,121.5"},{p:'scaleX',t:[7000,7750],v:[1.5,2],e:[[0],[0]]},{p:'scaleY',t:[7000,7750],v:[1.5,2],e:[[0],[0]]},{p:'opacity',t:[6333,6625],v:[0,1],e:[[0],[0]]}],
"#NearbyWorld2",[{p:'mpath',t:[1750,2750],v:['0%','100%'],e:[[1,0,0,.6,1],[0]],mp:"M144.9,-119L226.2,119.7"},{p:'scaleX',t:[1750,2750],v:[1,.7],e:[[0],[0]]},{p:'scaleY',t:[1750,2750],v:[1,.7],e:[[0],[0]]},{p:'opacity',t:[1750,2750],v:[0,1],e:[[0],[0]]}],
"#Reflection-2",[{p:'d',t:[0,375,1000,2750],v:["path('M144.3,154.7L223.4,201.8L213.6,331.7L21,331.7L21,332L9.8,171.4Z')","path('M166.5,185.4L210.1,214.3L199.3,332.1L36,332.1L29.7,224.4L26,157.7Z')","path('M178.3,201.7L198.4,225.5L191.6,332.4L20.3,332.4L13.6,225.5L35.7,201.7Z')","path('M178.3,201.7L189.6,225.5L178.3,332.4L22.4,332.4L15.7,225.5L35.7,201.7Z')"],e:[[1,0,0,.6,1],[1,.4,0,.6,1],[0],[0]]}],
"#_a28",[{p:'mpath',t:[0,1000],v:['0%','100%'],e:[[1,0,0,.6,1],[0]],mp:"M108.9,187.6L106,187.1"},{p:'rotate',t:[0,1000],v:[-14,0],e:[[1,0,0,.6,1],[0]]},{p:'skewX',t:[0,1000],v:[31,0],e:[[1,0,0,.6,1],[0]]},{p:'skewY',t:[0,1000],v:[0,0],e:[[1,0,0,.6,1],[0]]},{p:'scaleX',t:[0,1000],v:[.9,1],e:[[1,0,0,.6,1],[0]]},{p:'scaleY',t:[0,1000],v:[1.2,1],e:[[1,0,0,.6,1],[0]]}],
"#Left",[{p:'opacity',t:[7000,7750],v:[.5,1],e:[[0],[0]]}],
"#Front",[{p:'opacity',t:[7000,7750],v:[.5,1],e:[[0],[0]]}],
"#Network-5",[{p:'opacity',t:[1000,1750,7000,7750],v:[0,1,1,0],e:[[0],[0],[0],[0]]}],
"#Line-5",[{p:'strokeDashoffset',t:[5500,6500],v:[210,0],e:[[0],[0]]}],
"#glow-24",[{p:'scaleX',t:[5500,5875],v:[0,1],e:[[1,.4,0,.6,1],[0]]},{p:'scaleY',t:[5500,5875],v:[0,1],e:[[1,.4,0,.6,1],[0]]}],
"#_a29",[{p:'scaleX',t:[5500,5875],v:[0,1],e:[[1,.4,0,.6,1],[0]]},{p:'scaleY',t:[5500,5875],v:[0,1],e:[[1,.4,0,.6,1],[0]]}],
"#glow-25",[{p:'scaleX',t:[5583,5958],v:[0,1],e:[[1,.4,0,.6,1],[0]]},{p:'scaleY',t:[5583,5958],v:[0,1],e:[[1,.4,0,.6,1],[0]]}],
"#_a30",[{p:'scaleX',t:[5583,5958],v:[0,1],e:[[1,.4,0,.6,1],[0]]},{p:'scaleY',t:[5583,5958],v:[0,1],e:[[1,.4,0,.6,1],[0]]}],
"#glow-26",[{p:'scaleX',t:[5667,6042],v:[0,1],e:[[1,.4,0,.6,1],[0]]},{p:'scaleY',t:[5667,6042],v:[0,1],e:[[1,.4,0,.6,1],[0]]}],
"#_a31",[{p:'scaleX',t:[5667,6042],v:[0,1],e:[[1,.4,0,.6,1],[0]]},{p:'scaleY',t:[5667,6042],v:[0,1],e:[[1,.4,0,.6,1],[0]]}],
"#glow-27",[{p:'scaleX',t:[5750,6125],v:[0,1],e:[[1,.4,0,.6,1],[0]]},{p:'scaleY',t:[5750,6125],v:[0,1],e:[[1,.4,0,.6,1],[0]]}],
"#_a32",[{p:'scaleX',t:[5750,6125],v:[0,1],e:[[1,.4,0,.6,1],[0]]},{p:'scaleY',t:[5750,6125],v:[0,1],e:[[1,.4,0,.6,1],[0]]}],
"#glow-28",[{p:'scaleX',t:[5833,6208],v:[0,1],e:[[1,.4,0,.6,1],[0]]},{p:'scaleY',t:[5833,6208],v:[0,1],e:[[1,.4,0,.6,1],[0]]}],
"#_a33",[{p:'scaleX',t:[5833,6208],v:[0,1],e:[[1,.4,0,.6,1],[0]]},{p:'scaleY',t:[5833,6208],v:[0,1],e:[[1,.4,0,.6,1],[0]]}],
"#glow-29",[{p:'scaleX',t:[5917,6292],v:[0,1],e:[[1,.4,0,.6,1],[0]]},{p:'scaleY',t:[5917,6292],v:[0,1],e:[[1,.4,0,.6,1],[0]]}],
"#_a34",[{p:'scaleX',t:[5917,6292],v:[0,1],e:[[1,.4,0,.6,1],[0]]},{p:'scaleY',t:[5917,6292],v:[0,1],e:[[1,.4,0,.6,1],[0]]}],
"#glow-30",[{p:'scaleX',t:[6000,6375],v:[0,1],e:[[1,.4,0,.6,1],[0]]},{p:'scaleY',t:[6000,6375],v:[0,1],e:[[1,.4,0,.6,1],[0]]}],
"#_a35",[{p:'scaleX',t:[6000,6375],v:[0,1],e:[[1,.4,0,.6,1],[0]]},{p:'scaleY',t:[6000,6375],v:[0,1],e:[[1,.4,0,.6,1],[0]]}],
"#glow-31",[{p:'scaleX',t:[6083,6458],v:[0,1],e:[[1,.4,0,.6,1],[0]]},{p:'scaleY',t:[6083,6458],v:[0,1],e:[[1,.4,0,.6,1],[0]]}],
"#_a36",[{p:'scaleX',t:[6083,6458],v:[0,1],e:[[1,.4,0,.6,1],[0]]},{p:'scaleY',t:[6083,6458],v:[0,1],e:[[1,.4,0,.6,1],[0]]}],
"#glow-32",[{p:'scaleX',t:[6167,6542],v:[0,1],e:[[1,.4,0,.6,1],[0]]},{p:'scaleY',t:[6167,6542],v:[0,1],e:[[1,.4,0,.6,1],[0]]}],
"#_a37",[{p:'scaleX',t:[6167,6542],v:[0,1],e:[[1,.4,0,.6,1],[0]]},{p:'scaleY',t:[6167,6542],v:[0,1],e:[[1,.4,0,.6,1],[0]]}],
"#_a38",[{p:'scaleX',t:[6333,6708],v:[1,1.3],e:[[0],[0]]},{p:'scaleY',t:[6333,6708],v:[1,1.3],e:[[0],[0]]}],
"#glow-33",[{p:'scaleX',t:[6333,6708],v:[0,1],e:[[1,.4,0,.6,1],[0]]},{p:'scaleY',t:[6333,6708],v:[0,1],e:[[1,.4,0,.6,1],[0]]}],
"#_a39",[{p:'scaleX',t:[6333,6708],v:[0,1],e:[[1,.4,0,.6,1],[0]]},{p:'scaleY',t:[6333,6708],v:[0,1],e:[[1,.4,0,.6,1],[0]]}],
"#Top",[{p:'opacity',t:[7000,7750],v:[.8,1],e:[[0],[0]]}],
"#_a40",[{p:'mpath',t:[7000,7750],v:['0%','100%'],e:[[1,.4,0,.6,1],[0]],mp:"M102.5,195.1L102.5,121.5"},{p:'scaleX',t:[7000,7750],v:[1.5,2],e:[[0],[0]]},{p:'scaleY',t:[7000,7750],v:[1.5,2],e:[[0],[0]]},{p:'opacity',t:[6708,7000],v:[0,1],e:[[0],[0]]}],
"#_a41",[{p:'mpath',t:[2750,4750,5250],v:['0%','0%','100%'],e:[[0],[1,0,0,.6,1],[0]],mp:"M226.9,173.3L226.9,173.3L226.9,232.2"},{p:'opacity',t:[2750,3250],v:[0,1],e:[[0],[0]]}],
"#_a42",[{p:'opacity',t:[4875,5250],v:[0,1],e:[[0],[0]]}],
"#StayLength",[{p:'opacity',t:[5125,5500],v:[0,1],e:[[0],[0]]}],
"#_a43",[{p:'opacity',t:[2750,3250],v:[0,1],e:[[0],[0]]}],
"#_a44",[{p:'opacity',t:[2750,3250],v:[0,1],e:[[0],[0]]}],
{autoremove:false,markers:{"1":{time: 0},"2":{time: 1000},"3":{time: 1750},"4":{time: 3250},"5":{time: 4750},"6":{time: 7000},"7":{time: 7750}}}).range(0,7750);
if(document.location.search.substr(1).split('&').indexOf('global=paused')>=0)ks.globalPause();})(KeyshapeJS);
]]></script></svg>
