<?xml version="1.0" encoding="UTF-8" standalone="no"?>
<!DOCTYPE svg PUBLIC "-//W3C//DTD SVG 1.1//EN" "http://www.w3.org/Graphics/SVG/1.1/DTD/svg11.dtd">
<svg width="22px" height="19px" version="1.1" xmlns="http://www.w3.org/2000/svg" xmlns:xlink="http://www.w3.org/1999/xlink" xml:space="preserve" xmlns:serif="http://www.serif.com/" style="fill-rule:evenodd;clip-rule:evenodd;stroke-linejoin:round;stroke-miterlimit:2;">
    <g transform="matrix(1,0,0,1,-347,-524)">
        <g transform="matrix(1,0,0,1,-533.654,-153.075)">
            <g transform="matrix(0.312661,0.541546,-0.541546,0.312661,680.252,-10.8526)">
                <path d="M1144.23,253.229L1150.61,264.273L1141.85,269.329L1141.85,279.44L1129.1,279.44L1129.1,269.329L1120.34,264.273L1126.72,253.229L1135.47,258.285L1144.23,253.229Z" style="fill:#FF645C;"/>
                <path d="M1145.62,252.429C1145.17,251.664 1144.2,251.402 1143.43,251.844L1135.47,256.438C1135.47,256.438 1127.52,251.844 1127.52,251.844C1126.75,251.402 1125.77,251.664 1125.33,252.429L1118.96,263.473C1118.51,264.238 1118.78,265.216 1119.54,265.658L1127.5,270.252C1127.5,270.252 1127.5,279.44 1127.5,279.44C1127.5,280.323 1128.21,281.039 1129.1,281.039L1141.85,281.039C1142.73,281.039 1143.45,280.323 1143.45,279.44L1143.45,270.252C1143.45,270.252 1151.41,265.658 1151.41,265.658C1152.17,265.216 1152.43,264.238 1151.99,263.473L1145.62,252.429ZM1144.23,253.229L1150.61,264.273L1141.85,269.329L1141.85,279.44L1129.1,279.44L1129.1,269.329L1120.34,264.273L1126.72,253.229L1135.47,258.285L1144.23,253.229Z" style="fill:rgb(27,16,35);"/>
            </g>
        </g>
    </g>
</svg>
